<?xml version="1.0" encoding="UTF-8"?>
<svg version="1.1" xmlns="http://www.w3.org/2000/svg" width="1024" height="1024">
<path d="M0 0 C2.84360713 1.35596922 5.70486483 2.67389982 8.5625 4 C14.08372071 6.58611066 19.55537864 9.25661207 25 12 C26.34352212 12.67233056 27.68727215 13.3442059 29.03125 14.015625 C69 34 69 34 71.00024414 35.00024414 C72.33263348 35.66635748 73.66515291 36.33221067 74.99780273 36.99780273 C78.34669808 38.67081838 81.69315952 40.34839756 85.03515625 42.03515625 C86.37741294 42.71131724 87.71985998 43.3871005 89.0625 44.0625 C90.04331543 44.55592896 90.04331543 44.55592896 91.04394531 45.05932617 C96.92882516 48.00103885 102.8951911 50.74879341 108.890625 53.45703125 C111.59104458 54.79706358 113.83047958 55.9147328 116 58 C116.68341709 63.38190955 116.68341709 63.38190955 116 66 C113.37352217 69.20083289 110.65425969 70.88159905 106.9375 72.625 C101.26596687 75.35936431 95.68877318 78.23992614 90.125 81.1875 C81.67945968 85.66069857 81.67945968 85.66069857 77.90234375 87.546875 C75.72408114 88.63747216 73.5766995 89.7541112 71.43359375 90.91015625 C63.57424431 95.14836119 55.65255567 99.1566418 47.5625 102.9375 C40.08725244 106.43640755 32.86470459 110.21699261 25.69677734 114.3046875 C19.37144291 117.8779714 12.87747819 121.01068761 6.27880859 124.04516602 C3.15288338 125.48559613 0.1548365 126.90623188 -2.79296875 128.69140625 C-8.75790553 132.22813868 -16.60740322 131.75996484 -23.2578125 130.609375 C-30.95572745 128.32634319 -38.00680888 123.87411757 -45 120 C-51.47899527 116.43443528 -57.98278676 112.98718184 -64.61328125 109.7109375 C-69.43533039 107.27488499 -74.19568457 104.72493465 -78.94970703 102.15893555 C-83.22320717 99.87096467 -87.51701548 97.8459348 -92 96 C-92 95.34 -92 94.68 -92 94 C-92.72920654 93.88213135 -93.45841309 93.7642627 -94.2097168 93.64282227 C-97.02311836 92.99467402 -99.10957274 92.07716839 -101.64453125 90.71484375 C-102.48564453 90.26689453 -103.32675781 89.81894531 -104.19335938 89.35742188 C-105.05767578 88.88884766 -105.92199219 88.42027344 -106.8125 87.9375 C-107.69615234 87.46505859 -108.57980469 86.99261719 -109.49023438 86.50585938 C-111.66331578 85.34296716 -113.83302284 84.17421625 -116 83 C-116.12372902 89.17464913 -116.21440144 95.34857456 -116.2746582 101.52416992 C-116.29978051 103.6242327 -116.33388458 105.72420823 -116.37719727 107.82397461 C-116.43794871 110.8451084 -116.46623263 113.86508496 -116.48828125 116.88671875 C-116.51408768 117.82335861 -116.5398941 118.75999847 -116.56648254 119.72502136 C-116.57346132 125.30041346 -116.57346132 125.30041346 -113.59448242 129.94458008 C-112.31021362 130.96201294 -112.31021362 130.96201294 -111 132 C-108.16147854 136.25778219 -108.48754951 140.0036077 -109 145 C-110.73300789 149.19570331 -113.25763569 151.48438582 -117 154 C-120.375 154.53125 -120.375 154.53125 -124 154.5 C-125.794375 154.51546875 -125.794375 154.51546875 -127.625 154.53125 C-132.42770088 153.77526931 -134.73436255 151.4838508 -137.8125 147.875 C-139.58314912 143.58816529 -139.6978947 139.57008467 -139 135 C-137.20353146 132.06576805 -136.0558929 130.52794645 -133 129 C-132.67 110.85 -132.34 92.7 -132 74 C-133.65 73.67 -135.3 73.34 -137 73 C-139.16796875 71.87890625 -139.16796875 71.87890625 -141.1875 70.5625 C-142.19876953 69.91474609 -142.19876953 69.91474609 -143.23046875 69.25390625 C-145 68 -145 68 -147 66 C-147.73362445 60.31441048 -147.73362445 60.31441048 -147 58 C-142.30610333 54.19046068 -136.77389609 51.89317676 -131.3125 49.375 C-124.27807494 46.08312421 -117.34513513 42.66923584 -110.5 39 C-103.01213654 34.99186925 -95.41004853 31.29935843 -87.72167969 27.69287109 C-81.24563319 24.63829158 -74.91614467 21.36571153 -68.61108398 17.97460938 C-64.61311318 15.83106974 -60.60797599 13.85805208 -56.4296875 12.0859375 C-52.92065244 10.51759064 -49.49677873 8.78733423 -46.0625 7.0625 C-45.36713135 6.71356689 -44.6717627 6.36463379 -43.95532227 6.00512695 C-40.95055152 4.49405317 -37.95055501 2.97467451 -34.95703125 1.44140625 C-34.10496094 1.00699219 -33.25289063 0.57257813 -32.375 0.125 C-31.66085938 -0.24367188 -30.94671875 -0.61234375 -30.2109375 -0.9921875 C-19.74961418 -5.76077657 -9.99817768 -5.31660852 0 0 Z " fill="#011645" transform="translate(272,370)"/>
<path d="M0 0 C2.75273109 1.26517444 5.50212343 2.53685974 8.25 3.8125 C9.41595703 4.34713867 9.41595703 4.34713867 10.60546875 4.89257812 C14.39684209 6.65864519 17.69237747 8.42117566 21 11 C23.06310987 12.10125459 25.14954827 13.1592556 27.25 14.1875 C28.48706382 14.79670312 29.72403921 15.40608585 30.9609375 16.015625 C31.6115918 16.33466797 32.26224609 16.65371094 32.93261719 16.98242188 C36.58931215 18.7822689 40.23112279 20.61188319 43.875 22.4375 C45.24733336 23.12382284 46.6197237 23.81003179 47.9921875 24.49609375 C48.98476562 24.99238281 49.97734375 25.48867188 51 26 C51 26.66 51 27.32 51 28 C51.71800781 28.10570312 52.43601563 28.21140625 53.17578125 28.3203125 C56.27694876 29.06665157 58.45047631 30.24976584 61.1875 31.875 C71.36846753 37.52204332 81.79601925 40.06979471 93.44921875 37.44921875 C96.08989555 36.47682293 98.50023294 35.29814801 101 34 C101.66628418 33.65614258 102.33256836 33.31228516 103.01904297 32.95800781 C107.06724029 30.86257335 111.09681543 28.73422192 115.1171875 26.5859375 C119.4586867 24.27285764 123.83971127 22.05342526 128.25 19.875 C133.42344459 17.3146073 138.54179691 14.67268467 143.625 11.9375 C148.64273301 9.24411897 153.67434997 6.58289477 158.75 4 C160.44382812 3.13375 160.44382812 3.13375 162.171875 2.25 C165 1 165 1 168 1 C170.83519708 28.01099925 161.61051968 52.24724885 145.52734375 73.85546875 C143.43994201 76.78637298 141.78715046 79.89535246 140.140625 83.08984375 C139 85 139 85 137.546875 86.44140625 C135.58512586 88.41801712 134.40626494 90.59777684 133 93 C131.66877875 94.95333653 130.31387849 96.89071545 128.9375 98.8125 C128.24527344 99.78832031 127.55304688 100.76414062 126.83984375 101.76953125 C125.92912109 102.87361328 125.92912109 102.87361328 125 104 C124.34 104 123.68 104 123 104 C122.84156616 104.87374268 122.84156616 104.87374268 122.67993164 105.76513672 C121.89935112 108.33082221 120.84722462 109.71519372 119.12109375 111.7578125 C118.53312012 112.46131836 117.94514648 113.16482422 117.33935547 113.88964844 C116.71174316 114.62731445 116.08413086 115.36498047 115.4375 116.125 C114.15705067 117.65322586 112.8771002 119.18186983 111.59765625 120.7109375 C110.66783936 121.81646973 110.66783936 121.81646973 109.71923828 122.94433594 C105.6941108 127.75711262 101.81710492 132.6907625 97.9375 137.62109375 C94.64834824 141.65958855 92.06666122 143.65766961 86.81640625 144.52734375 C80.38507182 144.92194662 75.93271438 144.75383458 70.9375 140.4375 C67.54541962 136.88808751 64.71941211 133.07911816 62 129 C61.46117187 128.48050781 60.92234375 127.96101562 60.3671875 127.42578125 C59 126 59 126 59 124 C58.01 123.67 57.02 123.34 56 123 C54.30859375 120.953125 54.30859375 120.953125 52.4375 118.25 C49.38123949 113.92076492 46.25203774 109.6819046 43 105.5 C26 83.54234528 26 83.54234528 26 80 C25.34 80 24.68 80 24 80 C23.48050781 79.0821875 22.96101563 78.164375 22.42578125 77.21875 C17.97614904 69.33951443 17.97614904 69.33951443 13.25 61.625 C8.94632165 54.83123351 5.69854094 47.56629363 3 40 C2.62359375 38.96746094 2.2471875 37.93492187 1.859375 36.87109375 C-1.81229996 25.30014625 -2.02675562 13.05765148 -1 1 C-0.67 0.67 -0.34 0.34 0 0 Z " fill="#011645" transform="translate(173,476)"/>
<path d="M0 0 C2.9907955 1.66155306 4.75691866 3.34409569 6.625 6.25 C7.285 6.25 7.945 6.25 8.625 6.25 C9.346875 5.486875 10.06875 4.72375 10.8125 3.9375 C15.04997621 -0.11164393 19.23884336 -1.88679484 25.0625 -2.1875 C29.76480032 -2.01841043 33.88830413 -0.65333204 37.625 2.25 C37.96660156 2.93578125 38.30820312 3.6215625 38.66015625 4.328125 C39.52144846 6.60768116 39.52144846 6.60768116 42.625 7.25 C44.73407983 13.38849769 44.90589526 19.17862154 44.85546875 25.62109375 C44.85501053 26.58402847 44.85455231 27.5469632 44.8540802 28.53907776 C44.8510765 30.5585352 44.8432472 32.57799073 44.83081055 34.59741211 C44.81241175 37.70239358 44.8103021 40.80707876 44.81054688 43.91210938 C44.80563636 45.87760677 44.79981008 47.84310213 44.79296875 49.80859375 C44.79185593 50.74078232 44.7907431 51.67297089 44.78959656 52.63340759 C44.78321671 53.48842361 44.77683685 54.34343964 44.77026367 55.22436523 C44.76645187 55.97967026 44.76264008 56.73497528 44.75871277 57.51316833 C44.625 59.25 44.625 59.25 43.625 60.25 C41.46019203 60.3489294 39.29206215 60.379711 37.125 60.375 C35.9390625 60.37757813 34.753125 60.38015625 33.53125 60.3828125 C30.625 60.25 30.625 60.25 29.625 59.25 C29.48934333 56.52198447 29.41434442 53.81578794 29.37890625 51.0859375 C29.34594179 49.38931826 29.31273062 47.6927038 29.27929688 45.99609375 C29.23205785 43.31693122 29.18768845 40.63778433 29.14819336 37.95849609 C29.10821958 35.37575884 29.05670904 32.79344002 29.00390625 30.2109375 C28.9954921 29.41899994 28.98707794 28.62706238 28.97840881 27.81112671 C28.87167565 22.95591401 28.30367624 18.82644876 26.625 14.25 C23.43462203 12.65481102 20.09644801 12.8719215 16.625 13.25 C14.12401018 14.26990794 14.12401018 14.26990794 12.625 16.25 C11.35582592 20.7690289 11.42257447 25.35737942 11.34375 30.015625 C11.32534058 30.8496283 11.30693115 31.68363159 11.28796387 32.54290771 C11.20947616 36.09976743 11.14123284 39.65680268 11.07275391 43.21386719 C11.02119429 45.81455318 10.96391816 48.41506847 10.90625 51.015625 C10.89267456 51.82598206 10.87909912 52.63633911 10.8651123 53.47125244 C10.7379001 59.1370999 10.7379001 59.1370999 9.625 60.25 C7.27186445 60.32271741 4.91666332 60.33370868 2.5625 60.3125 C1.27214844 60.30347656 -0.01820313 60.29445313 -1.34765625 60.28515625 C-2.34667969 60.27355469 -3.34570312 60.26195312 -4.375 60.25 C-4.40005615 58.99340576 -4.4251123 57.73681152 -4.45092773 56.44213867 C-4.54502295 51.78480643 -4.64523859 47.12762259 -4.74731445 42.47045898 C-4.79065529 40.45389271 -4.83233098 38.43728993 -4.87231445 36.4206543 C-4.93003747 33.52381383 -4.99372622 30.62715694 -5.05859375 27.73046875 C-5.07530624 26.82725388 -5.09201874 25.924039 -5.10923767 24.99345398 C-5.1391555 23.7324865 -5.1391555 23.7324865 -5.16967773 22.44604492 C-5.19299416 21.33684944 -5.19299416 21.33684944 -5.21678162 20.20524597 C-5.31412225 18.0348329 -5.31412225 18.0348329 -6.375 15.25 C-10.22331097 12.54192932 -14.12822757 13.00035862 -18.625 13.5 C-20.53304235 14.1268327 -20.53304235 14.1268327 -21.5625 16.0625 C-23.39850105 21.00557974 -23.58340171 25.71488867 -23.69140625 30.953125 C-23.71218735 31.79091492 -23.73296844 32.62870483 -23.75437927 33.49188232 C-23.8196255 36.16117356 -23.87864358 38.83056098 -23.9375 41.5 C-23.98070894 43.31250984 -24.02432399 45.12501005 -24.06835938 46.9375 C-24.17528129 51.37490209 -24.27661866 55.81240068 -24.375 60.25 C-28.995 60.25 -33.615 60.25 -38.375 60.25 C-39.69038313 57.61923375 -39.50210325 55.66053669 -39.50439453 52.71459961 C-39.50754669 51.55677475 -39.51069885 50.39894989 -39.51394653 49.20603943 C-39.5119223 47.95081985 -39.50989807 46.69560028 -39.5078125 45.40234375 C-39.50876923 44.12017471 -39.50972595 42.83800568 -39.51071167 41.51698303 C-39.51218671 38.80256955 -39.51003994 36.08818896 -39.50537109 33.3737793 C-39.49966822 29.88758959 -39.50295754 26.40147677 -39.50894356 22.91528988 C-39.51341655 19.59846826 -39.51028929 16.28166756 -39.5078125 12.96484375 C-39.50983673 11.70759995 -39.51186096 10.45035614 -39.51394653 9.15501404 C-39.51079437 8.00034134 -39.50764221 6.84566864 -39.50439453 5.65600586 C-39.50359894 4.63389511 -39.50280334 3.61178436 -39.50198364 2.55870056 C-39.375 0.25 -39.375 0.25 -38.375 -0.75 C-36.02186445 -0.82271741 -33.66666332 -0.83370868 -31.3125 -0.8125 C-30.02214844 -0.80347656 -28.73179687 -0.79445313 -27.40234375 -0.78515625 C-26.40332031 -0.77355469 -25.40429688 -0.76195312 -24.375 -0.75 C-24.045 0.9 -23.715 2.55 -23.375 4.25 C-22.90449219 3.90066406 -22.43398438 3.55132812 -21.94921875 3.19140625 C-21.32660156 2.73636719 -20.70398438 2.28132813 -20.0625 1.8125 C-19.44761719 1.36003906 -18.83273437 0.90757812 -18.19921875 0.44140625 C-12.70000685 -3.15015612 -5.76272614 -2.71625724 0 0 Z " fill="#020525" transform="translate(496.375,473.75)"/>
<path d="M0 0 C4.39082878 3.65151059 7.14623167 7.83153153 7.83203125 13.56640625 C7.875 15.75 7.875 15.75 7.5625 19.3125 C6.5625 20.3125 6.5625 20.3125 3.40234375 20.41015625 C2.11457031 20.39855469 0.82679688 20.38695312 -0.5 20.375 C-1.79035156 20.36597656 -3.08070313 20.35695313 -4.41015625 20.34765625 C-5.40917969 20.33605469 -6.40820312 20.32445312 -7.4375 20.3125 C-7.6025 19.24 -7.7675 18.1675 -7.9375 17.0625 C-8.62449709 14.67736221 -9.14512769 13.55521098 -11.0703125 11.95703125 C-15.96117014 9.30062425 -19.93089651 8.68059468 -25.4375 9.3125 C-28.25530534 10.70135248 -28.25530534 10.70135248 -30.4375 12.3125 C-31.0975 12.3125 -31.7575 12.3125 -32.4375 12.3125 C-33.5187391 18.37300614 -33.5187391 18.37300614 -32.4375 24.3125 C-31.138125 24.498125 -31.138125 24.498125 -29.8125 24.6875 C-26.4375 25.3125 -26.4375 25.3125 -23.6484375 26.26953125 C-20.33888242 27.34453272 -17.10758199 27.99437402 -13.6875 28.625 C-6.08500081 30.21622076 2.81457131 32.66539983 7.5625 39.3125 C10.59001479 45.2221031 11.63882805 50.890377 10.05859375 57.3828125 C7.81831788 64.11644168 3.98092215 69.13265507 -2.44140625 72.43359375 C-11.96201608 76.62564309 -22.18817627 78.20155778 -32.3125 75.0625 C-39.01682248 72.43479852 -45.92350867 69.09817024 -49.41015625 62.4609375 C-51.28820693 57.93614562 -51.74189971 54.18289533 -51.4375 49.3125 C-48.67297967 47.93023984 -46.3913637 48.21724613 -43.3125 48.25 C-42.21679688 48.25902344 -41.12109375 48.26804687 -39.9921875 48.27734375 C-39.14914062 48.28894531 -38.30609375 48.30054688 -37.4375 48.3125 C-36.78915346 49.582053 -36.14392185 50.85319706 -35.5 52.125 C-35.14035156 52.83269531 -34.78070312 53.54039062 -34.41015625 54.26953125 C-33.4375 56.3125 -33.4375 56.3125 -32.4375 59.3125 C-28.17739211 60.12333624 -24.1473481 60.44765187 -19.8125 60.4375 C-18.70648437 60.44007813 -17.60046875 60.44265625 -16.4609375 60.4453125 C-13.89102423 60.33242225 -11.82947817 60.23123707 -9.4375 59.3125 C-7.14078114 56.0205363 -6.37194212 54.14836297 -6.6875 50.125 C-8.64215285 46.98359363 -9.09450796 46.81808821 -12.44921875 45.78515625 C-13.25697754 45.53564209 -14.06473633 45.28612793 -14.89697266 45.02905273 C-19.70280073 43.67357461 -24.55319973 42.49834849 -29.41992188 41.3828125 C-34.98551572 40.00388786 -40.00090324 38.05637972 -44.4375 34.3125 C-44.4375 33.6525 -44.4375 32.9925 -44.4375 32.3125 C-45.0975 32.3125 -45.7575 32.3125 -46.4375 32.3125 C-50.03061059 24.20101429 -51.63527661 17.69978828 -48.6875 9.1328125 C-48.00410327 7.49660303 -47.2304959 5.89849181 -46.4375 4.3125 C-45.7775 4.3125 -45.1175 4.3125 -44.4375 4.3125 C-44.251875 3.735 -44.06625 3.1575 -43.875 2.5625 C-40.86147803 -2.15431699 -35.8563215 -3.76766118 -30.625 -4.9375 C-19.96548887 -6.72481984 -9.20051762 -6.26454539 0 0 Z " fill="#020626" transform="translate(736.4375,459.6875)"/>
<path d="M0 0 C4.43187754 4.55165801 6.10280276 9.08208372 6.125 15.375 C6.08375 16.57125 6.0425 17.7675 6 19 C1.22695785 19.52961153 -3.24906866 19.80065919 -8 19 C-10.33166974 16.87835199 -11.44776875 14.99968351 -12.7890625 12.1640625 C-14.24312884 9.56550523 -15.21215065 8.95832321 -18 8 C-23.68084659 7.20468148 -28.09323171 7.88839084 -33 11 C-35.38785276 12.94234089 -35.38785276 12.94234089 -35.1875 16.5 C-35.24131237 19.84964703 -35.24131237 19.84964703 -34 22 C-28.12847478 24.26713493 -22.00518022 25.89557296 -15.8125 27 C-7.13020216 28.61202273 0.54579439 31.59379732 6.09765625 38.67578125 C9.41439827 44.47156658 8.80278923 50.51645645 8 57 C6.81459481 60.40690882 5.42436196 63.30929968 3 66 C2.01 66.33 1.02 66.66 0 67 C0 67.66 0 68.32 0 69 C-11.75211486 75.29577582 -22.90396756 76.98748004 -35.9375 73.3125 C-43.65105612 70.66386928 -47.87058628 67.18823871 -52 60 C-53.52094534 56.19763666 -53.06722424 52.03345454 -53 48 C-48.05 48 -43.1 48 -38 48 C-37.525625 49.423125 -37.05125 50.84625 -36.5625 52.3125 C-35.32851737 55.09552466 -34.57707234 56.63905128 -31.9765625 58.265625 C-25.97008906 60.35661576 -20.18502671 61.04874275 -14.1875 58.625 C-11.0016727 57.20754387 -11.0016727 57.20754387 -9 55 C-8.3189416 49.91880709 -8.3189416 49.91880709 -10.18017578 45.46606445 C-12.54443263 43.56140086 -14.51328505 43.18700311 -17.48046875 42.5703125 C-18.56263672 42.33183594 -19.64480469 42.09335937 -20.75976562 41.84765625 C-23.02464758 41.37015977 -25.29026483 40.89613634 -27.55664062 40.42578125 C-37.34848886 38.25754487 -44.87447257 34.89361061 -50.75 26.5 C-52.87379293 20.55337978 -53.21202123 14.36672564 -51.05078125 8.36328125 C-48.73223409 3.93829377 -46.23894589 0.75531483 -42 -2 C-41.2575 -2.53625 -40.515 -3.0725 -39.75 -3.625 C-27.18056797 -9.90971602 -11.36387349 -7.88513671 0 0 Z " fill="#020626" transform="translate(444,461)"/>
<path d="M0 0 C2.32421875 1.984375 2.32421875 1.984375 4 4 C4 4.99 4 5.98 4 7 C4.66 7 5.32 7 6 7 C6.48212214 8.56159059 6.96055873 10.12431928 7.4375 11.6875 C7.70433594 12.55761719 7.97117187 13.42773438 8.24609375 14.32421875 C11.24475633 24.96714033 10.78150461 35.47266535 5.7578125 45.47265625 C3.47696953 49.29880407 3.47696953 49.29880407 2 51 C1.34 51 0.68 51 0 51 C-0.33 51.99 -0.66 52.98 -1 54 C-7.2513861 58.43982053 -14.59149621 59.03397817 -22 58 C-25.28541053 56.858806 -28.49533531 55.50466469 -31 53 C-31.33 61.25 -31.66 69.5 -32 78 C-37.28 78 -42.56 78 -48 78 C-48 50.94 -48 23.88 -48 -4 C-43.38 -4 -38.76 -4 -34 -4 C-33.34 -2.02 -32.68 -0.04 -32 2 C-31.505 1.401875 -31.01 0.80375 -30.5 0.1875 C-21.16404712 -7.98145877 -9.95759446 -5.95887543 0 0 Z M-30.1796875 14.09375 C-32.37405156 18.19367629 -32.65544888 21.84808476 -32.5625 26.4375 C-32.55371826 27.18523682 -32.54493652 27.93297363 -32.53588867 28.70336914 C-32.34883391 33.75274407 -31.65151927 37.62839435 -28.421875 41.68359375 C-25.46012247 44.42565585 -22.97376376 44.87568973 -19.0625 45.375 C-15.07844491 44.88715652 -13.08475814 43.5363567 -10 41 C-5.50282554 34.79700075 -5.46729263 28.43780106 -6 21 C-6.67035477 16.94097112 -7.46605176 13.40138481 -10.58203125 10.5546875 C-17.62764277 6.16461148 -25.25921852 7.10985855 -30.1796875 14.09375 Z " fill="#010525" transform="translate(800,477)"/>
<path d="M0 0 C5.23280937 3.07143159 7.15794412 7.39336679 9 13 C9.5001253 16.50623452 9.49360834 19.93229954 9.42578125 23.46875 C9.42249313 24.43026978 9.41920502 25.39178955 9.41581726 26.38244629 C9.40546448 28.39598456 9.38563186 30.40949469 9.35668945 32.42285156 C9.3122265 35.5190453 9.2951879 38.61446252 9.28320312 41.7109375 C9.26979375 43.67188632 9.25487487 45.63282554 9.23828125 47.59375 C9.23089432 48.52280151 9.22350739 49.45185303 9.21589661 50.40905762 C9.20306137 51.26084595 9.19022614 52.11263428 9.17700195 52.99023438 C9.16715775 53.74252319 9.15731354 54.49481201 9.14717102 55.26989746 C9 57 9 57 8 58 C5.64686445 58.07271741 3.29166332 58.08370868 0.9375 58.0625 C-0.35285156 58.05347656 -1.64320313 58.04445313 -2.97265625 58.03515625 C-3.97167969 58.02355469 -4.97070312 58.01195312 -6 58 C-6.33 56.35 -6.66 54.7 -7 53 C-7.66 53.598125 -8.32 54.19625 -9 54.8125 C-14.52955951 58.84447047 -20.10083619 60.8326577 -27 60 C-33.03069715 58.23630555 -38.15316472 56.16918491 -42 51 C-44.4588007 45.30005293 -44.35125965 39.96724153 -43 34 C-40.57278446 29.14556893 -37.78534067 26.52810451 -33 24 C-24.2921494 21.38764482 -15.01641834 20.91428622 -6 20 C-6.45705624 18.69562602 -6.92212358 17.394057 -7.390625 16.09375 C-7.64875977 15.36865234 -7.90689453 14.64355469 -8.17285156 13.89648438 C-8.89175502 11.87230203 -8.89175502 11.87230203 -10.75 10.5 C-16.04466005 9.32340888 -21.14202682 9.51452535 -26 12 C-26.66 13.98 -27.32 15.96 -28 18 C-32.62 18 -37.24 18 -42 18 C-42 10.22012512 -41.1125294 7.20407438 -35.875 1.8125 C-24.37713264 -5.43615551 -12.15053409 -6.53034323 0 0 Z M-15.375 31.8125 C-16.49648438 31.96332031 -17.61796875 32.11414063 -18.7734375 32.26953125 C-22.38886627 33.08803631 -25.34483298 34.34483298 -28 37 C-27.98407238 40.44892109 -27.98407238 40.44892109 -27 44 C-24.20184052 46.55126305 -22.31215088 46.96027171 -18.5625 47.4375 C-13.34487925 46.79673956 -10.40754626 44.73597372 -7.125 40.6875 C-5.71791249 37.32612427 -5.78778505 34.60765422 -6 31 C-9.20743982 31 -12.19860096 31.36547817 -15.375 31.8125 Z " fill="#030726" transform="translate(590,476)"/>
<path d="M0 0 C6.15360841 4.44427274 10.96678981 10.33629054 13.25 17.625 C14.41169006 27.92444658 14.87493745 39.10464447 8.25 47.625 C5.625 50.5625 5.625 50.5625 3.25 52.625 C2.83492187 53.11742187 2.41984375 53.60984375 1.9921875 54.1171875 C-2.68699196 58.16688094 -10.50384698 59.36294881 -16.5 60.0625 C-23.07567168 59.17731343 -28.92482904 56.76163051 -34.75 53.625 C-34.75 52.965 -34.75 52.305 -34.75 51.625 C-36.07 50.965 -37.39 50.305 -38.75 49.625 C-38.75 48.965 -38.75 48.305 -38.75 47.625 C-39.41 47.625 -40.07 47.625 -40.75 47.625 C-41.4009259 46.37764433 -42.04551669 45.12698168 -42.6875 43.875 C-43.04714844 43.17890625 -43.40679688 42.4828125 -43.77734375 41.765625 C-47.5335841 33.49887917 -46.93526024 21.88644516 -44 13.4375 C-41.1144589 6.67419665 -37.08563169 1.66653531 -30.3359375 -1.51171875 C-19.39037057 -5.90536181 -10.46857209 -5.23428604 0 0 Z M-26.75 13.625 C-30.66991599 19.76620171 -30.53876648 26.51733762 -29.75 33.625 C-28.50389156 37.93278348 -26.85084358 40.72694339 -23.375 43.5625 C-17.86864186 45.79126401 -14.23048769 45.78338962 -8.6796875 44 C-5.1159296 41.46064214 -3.1703434 37.80455839 -2.35449219 33.57421875 C-2.17864984 31.40784105 -2.14396988 29.29787854 -2.1875 27.125 C-2.19555664 26.37468506 -2.20361328 25.62437012 -2.21191406 24.85131836 C-2.42410093 19.0129839 -3.36143687 15.71434292 -7.75 11.625 C-14.19342262 7.76690127 -21.26536692 8.53212643 -26.75 13.625 Z " fill="#010524" transform="translate(858.75,476.375)"/>
<path d="M0 0 C4.95 0 9.9 0 15 0 C16.50156874 3.00313748 16.09281204 5.79067522 16.0625 9.125 C16.05347656 10.40632813 16.04445313 11.68765625 16.03515625 13.0078125 C16.02355469 13.99523437 16.01195312 14.98265625 16 16 C17.17369141 16.09087891 17.17369141 16.09087891 18.37109375 16.18359375 C19.38300781 16.26738281 20.39492188 16.35117187 21.4375 16.4375 C22.95150391 16.55931641 22.95150391 16.55931641 24.49609375 16.68359375 C27 17 27 17 28 18 C28.07205511 19.68608966 28.08386068 21.37500659 28.0625 23.0625 C28.05347656 23.98160156 28.04445313 24.90070313 28.03515625 25.84765625 C28.02355469 26.55792969 28.01195312 27.26820313 28 28 C23.49646738 29.75747614 19.82360189 30.19294408 15 30 C15.15847412 30.68860107 15.31694824 31.37720215 15.48022461 32.08666992 C16.05211717 35.29211563 16.21238625 38.35894123 16.31640625 41.61328125 C16.35830078 42.86044922 16.40019531 44.10761719 16.44335938 45.39257812 C16.48267578 46.68615234 16.52199219 47.97972656 16.5625 49.3125 C16.60568359 50.62541016 16.64886719 51.93832031 16.69335938 53.29101562 C16.79927227 56.52724288 16.90134885 59.76354458 17 63 C20.3 63 23.6 63 27 63 C27.91933305 66.67733219 27.99485581 68.59899538 27.5625 72.25 C27.46066406 73.14203125 27.35882812 74.0340625 27.25390625 74.953125 C27.17011719 75.62859375 27.08632813 76.3040625 27 77 C20.93139168 78.71201565 14.56052671 79.02974775 8.6875 76.5 C4.25486591 73.75456087 1.79595236 70.94256916 0 66 C-0.95413994 59.89773501 -0.79277197 53.65992693 -0.8125 47.5 C-0.83566857 45.80205156 -0.86103879 44.10413165 -0.88867188 42.40625 C-0.95121808 38.27072685 -0.98379428 34.13595377 -1 30 C-3.64 29.67 -6.28 29.34 -9 29 C-9 25.04 -9 21.08 -9 17 C-5 16 -5 16 0 17 C0 11.39 0 5.78 0 0 Z " fill="#010529" transform="translate(881,457)"/>
<path d="M0 0 C4.95 0 9.9 0 15 0 C15 5.61 15 11.22 15 17 C16.60875 16.814375 18.2175 16.62875 19.875 16.4375 C24.75 15.875 24.75 15.875 27 17 C27.02686553 18.97909398 27.04633375 20.95828971 27.0625 22.9375 C27.07410156 24.03964844 27.08570313 25.14179688 27.09765625 26.27734375 C27 29 27 29 26 30 C22.37 30 18.74 30 15 30 C15.33 40.56 15.66 51.12 16 62 C19.63 62.66 23.26 63.32 27 64 C27.02685938 66.14576637 27.04633088 68.29162645 27.0625 70.4375 C27.07410156 71.63246094 27.08570313 72.82742188 27.09765625 74.05859375 C27 77 27 77 26 78 C18.45283929 78.75844613 10.35316398 78.59223266 4 74 C0.18025318 68.5063521 -0.56209093 64.60731005 -0.390625 58.00390625 C-0.38496521 57.17036118 -0.37930542 56.3368161 -0.37347412 55.47801208 C-0.35124195 52.83890168 -0.30107305 50.2011938 -0.25 47.5625 C-0.22991787 45.76369161 -0.21167011 43.96486174 -0.1953125 42.16601562 C-0.15142071 37.77681067 -0.08248731 33.38864239 0 29 C-3.96 29.495 -3.96 29.495 -8 30 C-10.24828052 25.50343896 -10.16682272 21.92127034 -10 17 C-5.97128525 15.96404478 -4.34944269 16.13011146 0 17 C0 11.39 0 5.78 0 0 Z " fill="#000427" transform="translate(653,457)"/>
<path d="M0 0 C0 4.62 0 9.24 0 14 C-2.041875 14.20625 -4.08375 14.4125 -6.1875 14.625 C-11.95117265 15.41840322 -11.95117265 15.41840322 -16.25 19 C-18.95167494 23.63144275 -19.11911809 26.75431724 -19.0625 32.03515625 C-19.05871338 32.8290123 -19.05492676 33.62286835 -19.05102539 34.44078064 C-19.03878509 36.98140817 -19.02014998 39.5219236 -19 42.0625 C-18.97352454 45.40754887 -18.95347514 48.75254263 -18.9375 52.09765625 C-18.92920166 52.87367691 -18.92090332 53.64969757 -18.91235352 54.44923401 C-18.90379518 56.29970019 -18.94665945 58.15028296 -19 60 C-20 61 -20 61 -23.125 61.1328125 C-24.40375 61.13023437 -25.6825 61.12765625 -27 61.125 C-28.27875 61.12757813 -29.5575 61.13015625 -30.875 61.1328125 C-34 61 -34 61 -35 60 C-35.12852994 58.19577734 -35.18844755 56.3866236 -35.22119141 54.578125 C-35.24436432 53.42022461 -35.26753723 52.26232422 -35.29141235 51.06933594 C-35.3112619 49.80895508 -35.33111145 48.54857422 -35.3515625 47.25 C-35.37471527 45.96641602 -35.39786804 44.68283203 -35.42172241 43.36035156 C-35.47023172 40.64001766 -35.51515646 37.91965359 -35.55761719 35.19921875 C-35.61245546 31.70503403 -35.67627702 28.21108165 -35.74279213 24.71710205 C-35.80478986 21.39481327 -35.85908692 18.07241249 -35.9140625 14.75 C-35.94990952 12.85942871 -35.94990952 12.85942871 -35.98648071 10.93066406 C-36.0033493 9.77276367 -36.0202179 8.61486328 -36.03759766 7.421875 C-36.05456696 6.39674805 -36.07153625 5.37162109 -36.08901978 4.31542969 C-36 2 -36 2 -35 1 C-32.46950598 0.92686433 -29.96695163 0.90752473 -27.4375 0.9375 C-26.72658203 0.94201172 -26.01566406 0.94652344 -25.28320312 0.95117188 C-23.52209987 0.96299136 -21.76103964 0.98092737 -20 1 C-19.67 2.65 -19.34 4.3 -19 6 C-18.4225 5.38125 -17.845 4.7625 -17.25 4.125 C-11.88306688 -0.94377017 -7.11681736 -0.16944803 0 0 Z " fill="#010422" transform="translate(641,473)"/>
<path d="M0 0 C7.63697443 0.49806355 15.31519819 3.80283356 21 9 C21.68341709 14.38190955 21.68341709 14.38190955 21 17 C18.37352217 20.20083289 15.65425969 21.88159905 11.9375 23.625 C6.26596687 26.35936431 0.68877318 29.23992614 -4.875 32.1875 C-13.32054032 36.66069857 -13.32054032 36.66069857 -17.09765625 38.546875 C-19.27591886 39.63747216 -21.4233005 40.7541112 -23.56640625 41.91015625 C-31.42575569 46.14836119 -39.34744433 50.1566418 -47.4375 53.9375 C-54.91274756 57.43640755 -62.13529541 61.21699261 -69.30322266 65.3046875 C-75.62855709 68.8779714 -82.12252181 72.01068761 -88.72119141 75.04516602 C-91.84711662 76.48559613 -94.8451635 77.90623188 -97.79296875 79.69140625 C-103.75790553 83.22813868 -111.60740322 82.75996484 -118.2578125 81.609375 C-125.95572745 79.32634319 -133.00680888 74.87411757 -140 71 C-146.47899527 67.43443528 -152.98278676 63.98718184 -159.61328125 60.7109375 C-164.43533039 58.27488499 -169.19568457 55.72493465 -173.94970703 53.15893555 C-178.22320717 50.87096467 -182.51701548 48.8459348 -187 47 C-187 46.34 -187 45.68 -187 45 C-187.72920654 44.88213135 -188.45841309 44.7642627 -189.2097168 44.64282227 C-192.02311836 43.99467402 -194.10957274 43.07716839 -196.64453125 41.71484375 C-197.48564453 41.26689453 -198.32675781 40.81894531 -199.19335938 40.35742188 C-200.48983398 39.65456055 -200.48983398 39.65456055 -201.8125 38.9375 C-202.69615234 38.46505859 -203.57980469 37.99261719 -204.49023438 37.50585938 C-206.66331578 36.34296716 -208.83302284 35.17421625 -211 34 C-211 33.34 -211 32.68 -211 32 C-205.7887403 33.52821053 -201.28455235 35.83784217 -196.53515625 38.40625 C-194.83419771 39.3138162 -193.13250642 40.22001008 -191.43017578 41.125 C-190.54179016 41.59744141 -189.65340454 42.06988281 -188.73809814 42.55664062 C-184.16031839 44.96976864 -179.5475727 47.31328384 -174.93359375 49.65625 C-173.99343414 50.13457275 -173.05327454 50.61289551 -172.08462524 51.10571289 C-168.23777535 53.06239372 -164.39002492 55.01727607 -160.5402832 56.96826172 C-149.83705329 62.39537889 -139.18629473 67.86196817 -128.78526306 73.85388184 C-122.85219033 77.23207476 -117.61735122 79.29038643 -110.6875 79.375 C-109.63949219 79.40335937 -108.59148437 79.43171875 -107.51171875 79.4609375 C-98.68389738 78.30222457 -90.64163678 72.82063559 -82.84414673 68.74603271 C-79.59977713 67.05117325 -76.35048457 65.36579905 -73.1015625 63.6796875 C-72.47024918 63.35183258 -71.83893585 63.02397766 -71.18849182 62.68618774 C-66.74665249 60.3813998 -62.29330602 58.10301825 -57.8125 55.875 C-57.22694336 55.58383301 -56.64138672 55.29266602 -56.03808594 54.99267578 C-54.77599008 54.36630971 -53.51360587 53.74052443 -52.25097656 53.11523438 C-36.3994284 45.26166908 -20.61960344 37.30536344 -5 29 C-1.14875091 26.95277113 2.7058638 24.91205969 6.5625 22.875 C7.47427002 22.3888623 8.38604004 21.90272461 9.32543945 21.40185547 C10.1680835 20.95729004 11.01072754 20.51272461 11.87890625 20.0546875 C12.6272876 19.65749512 13.37566895 19.26030273 14.14672852 18.85107422 C16 18 16 18 18 18 C18 15.03 18 12.06 18 9 C16.71222656 8.60167969 16.71222656 8.60167969 15.3984375 8.1953125 C11.97089192 6.98976199 8.85826202 5.52755614 5.625 3.875 C4.56539062 3.33617187 3.50578125 2.79734375 2.4140625 2.2421875 C1.61742187 1.83226562 0.82078125 1.42234375 0 1 C0 0.67 0 0.34 0 0 Z " fill="#01021C" transform="translate(367,419)"/>
<path d="M0 0 C0.33 0 0.66 0 1 0 C1.20164425 3.70871248 0.79500383 6.0178161 -0.94140625 9.29296875 C-1.35688721 10.0833252 -1.77236816 10.87368164 -2.20043945 11.68798828 C-2.64991943 12.51282715 -3.09939941 13.33766602 -3.5625 14.1875 C-4.01778076 15.03812012 -4.47306152 15.88874023 -4.94213867 16.76513672 C-7.81041872 22.04495467 -10.88150058 27.03064548 -14.47265625 31.85546875 C-16.56005799 34.78637298 -18.21284954 37.89535246 -19.859375 41.08984375 C-21 43 -21 43 -22.453125 44.44140625 C-24.41487414 46.41801712 -25.59373506 48.59777684 -27 51 C-28.33122125 52.95333653 -29.68612151 54.89071545 -31.0625 56.8125 C-32.10083984 58.27623047 -32.10083984 58.27623047 -33.16015625 59.76953125 C-34.07087891 60.87361328 -34.07087891 60.87361328 -35 62 C-35.66 62 -36.32 62 -37 62 C-37.15843384 62.87374268 -37.15843384 62.87374268 -37.32006836 63.76513672 C-38.10064888 66.33082221 -39.15277538 67.71519372 -40.87890625 69.7578125 C-41.46687988 70.46131836 -42.05485352 71.16482422 -42.66064453 71.88964844 C-43.28825684 72.62731445 -43.91586914 73.36498047 -44.5625 74.125 C-45.84294933 75.65322586 -47.1228998 77.18186983 -48.40234375 78.7109375 C-49.33216064 79.81646973 -49.33216064 79.81646973 -50.28076172 80.94433594 C-54.3058892 85.75711262 -58.18289508 90.6907625 -62.0625 95.62109375 C-65.35165176 99.65958855 -67.93333878 101.65766961 -73.18359375 102.52734375 C-79.61492818 102.92194662 -84.06728562 102.75383458 -89.0625 98.4375 C-92.45458038 94.88808751 -95.28058789 91.07911816 -98 87 C-98.53882813 86.48050781 -99.07765625 85.96101562 -99.6328125 85.42578125 C-101 84 -101 84 -101 82 C-101.99 81.67 -102.98 81.34 -104 81 C-105.69140625 78.953125 -105.69140625 78.953125 -107.5625 76.25 C-110.61876051 71.92076492 -113.74796226 67.6819046 -117 63.5 C-134 41.54234528 -134 41.54234528 -134 38 C-134.66 38 -135.32 38 -136 38 C-136.51949219 37.0821875 -137.03898438 36.164375 -137.57421875 35.21875 C-138.27846055 33.97906139 -138.98290077 32.73948549 -139.6875 31.5 C-140.05037109 30.8594165 -140.41324219 30.21883301 -140.78710938 29.55883789 C-142.75477636 26.10537263 -144.78973055 22.7433497 -147 19.4375 C-148.90797412 16.15816948 -149.57685139 14.69184889 -149 11 C-146.79150755 13.05004088 -145.32636489 14.96257674 -143.94140625 17.6328125 C-143.56193848 18.34775879 -143.1824707 19.06270508 -142.79150391 19.79931641 C-142.38593262 20.56679199 -141.98036133 21.33426758 -141.5625 22.125 C-136.40590769 31.62821859 -130.4309205 40.3235553 -124 49 C-123.49146484 49.68868164 -122.98292969 50.37736328 -122.45898438 51.08691406 C-119.00736685 55.7512028 -115.51274168 60.38164461 -112 65 C-111.57509277 65.56138672 -111.15018555 66.12277344 -110.71240234 66.70117188 C-105.65643333 73.37833745 -100.48653529 79.96382681 -95.25 86.5 C-94.71898682 87.17095703 -94.18797363 87.84191406 -93.64086914 88.53320312 C-87.76143277 95.83800262 -87.76143277 95.83800262 -79.5625 99.9375 C-74.25422115 100.0306277 -70.51252496 99.42484235 -66.57421875 95.71484375 C-65.72472656 94.81894531 -64.87523437 93.92304687 -64 93 C-63.25621094 92.23042969 -62.51242187 91.46085938 -61.74609375 90.66796875 C-55.05788305 83.4818202 -49.24391136 75.82367768 -43.43310547 67.92529297 C-41.35927104 65.1392183 -39.2087841 62.4181856 -37.0625 59.6875 C-22.67167018 41.0233098 -10.17840703 21.24189293 0 0 Z " fill="#000322" transform="translate(333,518)"/>
<path d="M0 0 C2.75273109 1.26517444 5.50212343 2.53685974 8.25 3.8125 C9.41595703 4.34713867 9.41595703 4.34713867 10.60546875 4.89257812 C14.39684209 6.65864519 17.69237747 8.42117566 21 11 C23.06310987 12.10125459 25.14954827 13.1592556 27.25 14.1875 C28.48706382 14.79670312 29.72403921 15.40608585 30.9609375 16.015625 C31.6115918 16.33466797 32.26224609 16.65371094 32.93261719 16.98242188 C36.58931215 18.7822689 40.23112279 20.61188319 43.875 22.4375 C45.24733336 23.12382284 46.6197237 23.81003179 47.9921875 24.49609375 C48.98476562 24.99238281 49.97734375 25.48867188 51 26 C51 26.66 51 27.32 51 28 C51.71800781 28.10570312 52.43601563 28.21140625 53.17578125 28.3203125 C56.27694876 29.06665157 58.45047631 30.24976584 61.1875 31.875 C71.35694305 37.51565108 82.28892871 40.41776673 93.87109375 37.203125 C96.31273798 36.2368731 98.64798066 35.16556554 101 34 C102.37182916 33.40924834 103.74651754 32.82505556 105.125 32.25 C106.548125 31.63125 106.548125 31.63125 108 31 C108 31.99 108 32.98 108 34 C105.60727078 35.15272364 103.21118379 36.29728845 100.8125 37.4375 C100.13896484 37.76298828 99.46542969 38.08847656 98.77148438 38.42382812 C89.743349 42.69567755 81.54753192 42.99998063 72 40 C68.99520663 38.79898281 66.09448476 37.41956227 63.1875 36 C62.3620166 35.60264648 61.5365332 35.20529297 60.68603516 34.79589844 C52.59181232 30.8663061 44.64750959 26.6644451 36.70751953 22.43457031 C31.42451835 19.63538953 26.11736711 16.8824459 20.8125 14.125 C19.7611084 13.5774707 18.7097168 13.02994141 17.62646484 12.46582031 C12.10718614 9.59597243 6.57339401 6.76333547 1 4 C1.25316217 7.60562926 1.53087194 11.20899135 1.8125 14.8125 C1.88275391 15.81732422 1.95300781 16.82214844 2.02539062 17.85742188 C2.52714151 24.09920286 3.57942515 29.75778729 5.4831543 35.72924805 C6 38 6 38 5 41 C4.18395001 39.0848421 3.37229368 37.16781166 2.5625 35.25 C2.11003906 34.18265625 1.65757812 33.1153125 1.19140625 32.015625 C-0.54109603 27.63040612 -1.12736389 24.11964425 -1.1328125 19.39453125 C-1.13410156 18.32912109 -1.13539063 17.26371094 -1.13671875 16.16601562 C-1.13285156 15.05935547 -1.12898437 13.95269531 -1.125 12.8125 C-1.12886719 11.69423828 -1.13273438 10.57597656 -1.13671875 9.42382812 C-1.13542969 8.36228516 -1.13414062 7.30074219 -1.1328125 6.20703125 C-1.13168457 5.2322583 -1.13055664 4.25748535 -1.12939453 3.25317383 C-1 1 -1 1 0 0 Z " fill="#020724" transform="translate(173,476)"/>
<path d="M0 0 C1.32 0.33 2.64 0.66 4 1 C5.74690919 1.2143934 7.4974023 1.40107653 9.25 1.5625 C10.14203125 1.64628906 11.0340625 1.73007812 11.953125 1.81640625 C12.62859375 1.87699219 13.3040625 1.93757813 14 2 C14 4.64 14 7.28 14 10 C13.67 10 13.34 10 13 10 C13 7.69 13 5.38 13 3 C9.37 3 5.74 3 2 3 C2 28.41 2 53.82 2 80 C5.96 80 9.92 80 14 80 C13.835 78.329375 13.67 76.65875 13.5 74.9375 C12.8785967 67.61194279 12.90967908 60.34610114 13 53 C15.71663793 55.71663793 15.30753121 57.30194653 15.4140625 61.1015625 C15.45273437 62.31328125 15.49140625 63.525 15.53125 64.7734375 C15.57765625 66.67996094 15.57765625 66.67996094 15.625 68.625 C15.66367187 69.90375 15.70234375 71.1825 15.7421875 72.5 C15.83670756 75.66642211 15.919452 78.83319166 16 82 C10.72 82 5.44 82 0 82 C0 54.94 0 27.88 0 0 Z " fill="#000008" transform="translate(752,473)"/>
<path d="M0 0 C0.66 0.66 1.32 1.32 2 2 C1.34 2 0.68 2 0 2 C0 2.66 0 3.32 0 4 C-2.64 4.66 -5.28 5.32 -8 6 C-8 6.66 -8 7.32 -8 8 C-8.68707031 8.26554687 -9.37414062 8.53109375 -10.08203125 8.8046875 C-10.98308594 9.15789062 -11.88414062 9.51109375 -12.8125 9.875 C-14.15248047 10.39707031 -14.15248047 10.39707031 -15.51953125 10.9296875 C-18.17711591 11.98832155 -18.17711591 11.98832155 -21 14 C-21.57748803 15.96361864 -21.57748803 15.96361864 -21.6875 18.125 C-21.790625 19.40375 -21.89375 20.6825 -22 22 C-21.360625 22.226875 -20.72125 22.45375 -20.0625 22.6875 C-17.35202878 23.84913052 -14.87630332 25.14104102 -12.30859375 26.58203125 C-11.50091553 27.03425049 -10.6932373 27.48646973 -9.86108398 27.95239258 C-8.93984741 28.47095825 -8.93984741 28.47095825 -8 29 C-7.89857438 36.74117848 -7.82852331 44.48218558 -7.78027344 52.22387695 C-7.76015902 54.85740563 -7.73286396 57.49088966 -7.69824219 60.12426758 C-7.64971912 63.90978007 -7.62702888 67.694702 -7.609375 71.48046875 C-7.58872986 72.65772018 -7.56808472 73.83497162 -7.54681396 75.04789734 C-7.54457292 83.2129541 -7.54457292 83.2129541 -9.89941406 87.2824707 C-12 89 -12 89 -14 89 C-13.625 87.0625 -13.625 87.0625 -13 85 C-12.01 84.505 -12.01 84.505 -11 84 C-10.67 65.85 -10.34 47.7 -10 29 C-11.65 28.67 -13.3 28.34 -15 28 C-17.16796875 26.87890625 -17.16796875 26.87890625 -19.1875 25.5625 C-20.19876953 24.91474609 -20.19876953 24.91474609 -21.23046875 24.25390625 C-23 23 -23 23 -25 21 C-25.73362445 15.31441048 -25.73362445 15.31441048 -25 13 C-20.25917802 9.14904104 -14.64110089 6.80036592 -9.125 4.25 C-8.24585938 3.83878906 -7.36671875 3.42757813 -6.4609375 3.00390625 C-4.30927944 1.99823998 -2.15564898 0.99707542 0 0 Z " fill="#010A27" transform="translate(150,415)"/>
<path d="M0 0 C4.95 0 9.9 0 15 0 C14.67 2.31 14.34 4.62 14 7 C13.67 5.68 13.34 4.36 13 3 C9.7 3 6.4 3 3 3 C3.01160156 4.07121094 3.02320313 5.14242188 3.03515625 6.24609375 C3.04453299 7.64322743 3.05363331 9.04036299 3.0625 10.4375 C3.07087891 11.14455078 3.07925781 11.85160156 3.08789062 12.58007812 C3.09653588 14.38693559 3.05220011 16.19387603 3 18 C2 19 2 19 0.15234375 19.09765625 C-1.8984375 19.06510417 -3.94921875 19.03255208 -6 19 C-6 21.64 -6 24.28 -6 27 C-4.2984375 26.9690625 -4.2984375 26.9690625 -2.5625 26.9375 C1 27 1 27 2 28 C2.08855161 30.6662603 2.11524673 33.30647114 2.09765625 35.97265625 C2.0962413 36.77029892 2.09482635 37.56794159 2.09336853 38.38975525 C2.08775316 40.94737435 2.07519812 43.50490718 2.0625 46.0625 C2.05748698 47.79231645 2.05292373 49.52213426 2.04882812 51.25195312 C2.03777875 55.50133553 2.02050386 59.75065312 2 64 C1.67 64 1.34 64 1 64 C0.67 52.78 0.34 41.56 0 30 C-2.97 29.67 -5.94 29.34 -9 29 C-9 25.04 -9 21.08 -9 17 C-5 16 -5 16 0 17 C0 11.39 0 5.78 0 0 Z " fill="#070718" transform="translate(881,457)"/>
<path d="M0 0 C1.2065625 0.0309375 1.2065625 0.0309375 2.4375 0.0625 C2.4375 0.3925 2.4375 0.7225 2.4375 1.0625 C5.0775 1.3925 7.7175 1.7225 10.4375 2.0625 C10.4375 4.7025 10.4375 7.3425 10.4375 10.0625 C10.1075 10.0625 9.7775 10.0625 9.4375 10.0625 C9.4375 7.7525 9.4375 5.4425 9.4375 3.0625 C6.1375 3.0625 2.8375 3.0625 -0.5625 3.0625 C-0.5625 21.5425 -0.5625 40.0225 -0.5625 59.0625 C1.7475 59.0625 4.0575 59.0625 6.4375 59.0625 C6.4375 59.3925 6.4375 59.7225 6.4375 60.0625 C1.9825 60.5575 1.9825 60.5575 -2.5625 61.0625 C-3.87788313 58.43173375 -3.68960325 56.47303669 -3.69189453 53.52709961 C-3.69504669 52.36927475 -3.69819885 51.21144989 -3.70144653 50.01853943 C-3.6994223 48.76331985 -3.69739807 47.50810028 -3.6953125 46.21484375 C-3.69626923 44.93267471 -3.69722595 43.65050568 -3.69821167 42.32948303 C-3.69968671 39.61506955 -3.69753994 36.90068896 -3.69287109 34.1862793 C-3.68716822 30.70008959 -3.69045754 27.21397677 -3.69644356 23.72778988 C-3.70091655 20.41096826 -3.69778929 17.09416756 -3.6953125 13.77734375 C-3.69733673 12.52009995 -3.69936096 11.26285614 -3.70144653 9.96751404 C-3.69829437 8.81284134 -3.69514221 7.65816864 -3.69189453 6.46850586 C-3.69109894 5.44639511 -3.69030334 4.42428436 -3.68948364 3.37120056 C-3.50950977 0.09908011 -3.29625047 0.08039635 0 0 Z " fill="#040408" transform="translate(460.5625,472.9375)"/>
<path d="M0 0 C4.95 0 9.9 0 15 0 C15 5.61 15 11.22 15 17 C16.60875 16.814375 18.2175 16.62875 19.875 16.4375 C24.75 15.875 24.75 15.875 27 17 C27 20.3 27 23.6 27 27 C26.67 27 26.34 27 26 27 C26 24.03 26 21.06 26 18 C21.71 18 17.42 18 13 18 C13 13.05 13 8.1 13 3 C9.37 3 5.74 3 2 3 C2 7.95 2 12.9 2 18 C-1.3 18 -4.6 18 -8 18 C-8 20.97 -8 23.94 -8 27 C-8.66 27 -9.32 27 -10 27 C-10 23.7 -10 20.4 -10 17 C-5.97128525 15.96404478 -4.34944269 16.13011146 0 17 C0 11.39 0 5.78 0 0 Z " fill="#0B0C1B" transform="translate(653,457)"/>
<path d="M0 0 C0.66 0.66 1.32 1.32 2 2 C-9.26818234 8.04552257 -20.60377405 13.82684785 -32.22509766 19.16357422 C-33.95382505 19.97823998 -35.65535926 20.84984102 -37.35546875 21.72265625 C-40 23 -40 23 -42 23 C-42 23.66 -42 24.32 -42 25 C-49.42857143 28.28571429 -49.42857143 28.28571429 -53 29 C-51.5972896 25.48422932 -50.31123868 24.30688347 -46.87890625 22.7734375 C-46.03505371 22.38631592 -45.19120117 21.99919434 -44.32177734 21.6003418 C-43.41121582 21.195979 -42.5006543 20.79161621 -41.5625 20.375 C-39.64817177 19.49689952 -37.73544229 18.61530638 -35.82421875 17.73046875 C-34.85274902 17.28106934 -33.8812793 16.83166992 -32.88037109 16.36865234 C-28.47347946 14.27465044 -24.17410151 11.99289101 -19.875 9.6875 C-13.3477445 6.19911933 -6.81090581 2.9080272 0 0 Z " fill="#020829" transform="translate(206,387)"/>
<path d="M0 0 C3.89506887 1.65747611 5.41455635 3.14200877 7 7 C7.24050903 9.03753662 7.24050903 9.03753662 7.22705078 11.21777344 C7.22689972 12.03832214 7.22674866 12.85887085 7.22659302 13.70428467 C7.21627045 14.58046448 7.20594788 15.45664429 7.1953125 16.359375 C7.1924826 17.26375305 7.18965271 18.1681311 7.18673706 19.09991455 C7.17555782 21.98341195 7.15045733 24.86659675 7.125 27.75 C7.11496728 29.70702676 7.10584194 31.66405839 7.09765625 33.62109375 C7.07562585 38.41418262 7.04111144 43.20703834 7 48 C7.66 48 8.32 48 9 48 C9 48.66 9 49.32 9 50 C7.68 50 6.36 50 5 50 C4.96241577 48.11510864 4.96241577 48.11510864 4.92407227 46.19213867 C4.82997705 41.53480643 4.72976141 36.87762259 4.62768555 32.22045898 C4.58434471 30.20389271 4.54266902 28.18728993 4.50268555 26.1706543 C4.44496253 23.27381383 4.38127378 20.37715694 4.31640625 17.48046875 C4.29969376 16.57725388 4.28298126 15.674039 4.26576233 14.74345398 C4.24581711 13.90280899 4.22587189 13.062164 4.20532227 12.19604492 C4.18977798 11.45658127 4.1742337 10.71711761 4.15821838 9.95524597 C4.06087775 7.7848329 4.06087775 7.7848329 3 5 C0.32984077 2.97067898 -1.89257336 2.92373585 -5.125 3 C-6.40375 3 -7.6825 3 -9 3 C-9.66 2.34 -10.32 1.68 -11 1 C-7.5507568 -0.7246216 -3.77868569 -0.36610104 0 0 Z " fill="#000003" transform="translate(487,484)"/>
<path d="M0 0 C4.62 0 9.24 0 14 0 C13.67 0.66 13.34 1.32 13 2 C9.01624339 3.17169312 5.12560776 3.08089427 1 3 C1.15847412 3.68408936 1.31694824 4.36817871 1.48022461 5.07299805 C2.0629562 8.35452412 2.21367487 11.50059921 2.31640625 14.83203125 C2.35830078 16.12431641 2.40019531 17.41660156 2.44335938 18.74804688 C2.48316352 20.10286192 2.52287591 21.45767967 2.5625 22.8125 C2.60573723 24.18686105 2.64935312 25.56121024 2.69335938 26.93554688 C2.7992979 30.29026669 2.90137189 33.6450586 3 37 C2.34 37 1.68 37 1 37 C-0.70292609 32.55729068 -1.24713159 28.88855404 -1.23046875 24.140625 C-1.22853516 22.86058594 -1.22660156 21.58054687 -1.22460938 20.26171875 C-1.21530396 19.27437744 -1.21530396 19.27437744 -1.20581055 18.26708984 C-1.18742498 16.24173538 -1.18530208 14.21683592 -1.18554688 12.19140625 C-1.1404536 2.28090721 -1.1404536 2.28090721 0 0 Z " fill="#00000E" transform="translate(895,484)"/>
<path d="M0 0 C5.84475352 0.25411972 9.3271842 2.23279255 14.22265625 5.33203125 C18.66600846 8.00054235 23.38242207 10.02456023 28.10644531 12.14208984 C31.7345058 13.7858501 35.33445377 15.48979479 38.9375 17.1875 C39.64720947 17.52056152 40.35691895 17.85362305 41.08813477 18.19677734 C45.08664243 20.07803855 49.05584946 22.0063214 53 24 C52.67 24.66 52.34 25.32 52 26 C47.34647475 24.56329618 43.01880111 22.68468127 38.65234375 20.55078125 C37.61262169 20.04722359 37.61262169 20.04722359 36.55189514 19.53349304 C35.08785006 18.8233433 33.62468389 18.11137905 32.16235352 17.39770508 C29.97058361 16.32863702 27.77560308 15.26640907 25.58007812 14.20507812 C16.93411941 10.01013413 8.41703767 5.63855643 0 1 C0 0.67 0 0.34 0 0 Z " fill="#020928" transform="translate(313,392)"/>
<path d="M0 0 C3.96 0 7.92 0 12 0 C12.87890625 8.49609375 12.87890625 8.49609375 13 11 C12 12 12 12 9.49609375 12.09765625 C7.98208984 12.08025391 7.98208984 12.08025391 6.4375 12.0625 C5.42558594 12.05347656 4.41367187 12.04445313 3.37109375 12.03515625 C2.58863281 12.02355469 1.80617188 12.01195312 1 12 C1.01047363 12.86278564 1.02094727 13.72557129 1.03173828 14.61450195 C1.06583983 17.81810521 1.09090857 21.0216159 1.10986328 24.2253418 C1.1199157 25.61144048 1.1335597 26.99751799 1.15087891 28.38354492 C1.17515952 30.3766975 1.18542031 32.37000533 1.1953125 34.36328125 C1.20578613 35.56251221 1.21625977 36.76174316 1.22705078 37.99731445 C1 41 1 41 -1 44 C-1.0246519 39.17619198 -1.04283693 34.35242033 -1.05493164 29.52856445 C-1.05997174 27.88630536 -1.06680378 26.24405077 -1.07543945 24.60180664 C-1.08751926 22.24624521 -1.09323139 19.89074291 -1.09765625 17.53515625 C-1.10281754 16.79660904 -1.10797882 16.05806183 -1.11329651 15.2971344 C-1.1134925 13.53101912 -1.06194719 11.76502854 -1 10 C0 9 0 9 2.50390625 8.90234375 C4.01791016 8.91974609 4.01791016 8.91974609 5.5625 8.9375 C6.57441406 8.94652344 7.58632813 8.95554687 8.62890625 8.96484375 C9.80259766 8.98224609 9.80259766 8.98224609 11 9 C11 6.36 11 3.72 11 1 C7.37 1 3.74 1 0 1 C0 0.67 0 0.34 0 0 Z " fill="#000009" transform="translate(667,475)"/>
<path d="M0 0 C-0.9590625 0.1546875 -0.9590625 0.1546875 -1.9375 0.3125 C-2.618125 0.539375 -3.29875 0.76625 -4 1 C-4.33 1.99 -4.66 2.98 -5 4 C-5.99 4.66 -6.98 5.32 -8 6 C-9.42155616 10.41747927 -9.22087267 15.19689149 -9.31640625 19.80078125 C-9.33718735 20.63715622 -9.35796844 21.47353119 -9.37937927 22.33525085 C-9.44451034 24.99425421 -9.5035895 27.65335228 -9.5625 30.3125 C-9.60571992 32.12045231 -9.6493353 33.92839522 -9.69335938 35.73632812 C-9.80015416 40.15745622 -9.90152325 44.57867912 -10 49 C-11.485 49.495 -11.485 49.495 -13 50 C-12.95577412 44.12787019 -12.88586311 38.25680813 -12.79248047 32.38525391 C-12.76431297 30.38924675 -12.74307748 28.39312894 -12.72900391 26.39697266 C-12.70751597 23.52188636 -12.66083574 20.64812471 -12.609375 17.7734375 C-12.60814636 16.88570648 -12.60691772 15.99797546 -12.60565186 15.08334351 C-12.47679499 9.5913954 -11.70116686 6.32923856 -8 2 C-4.77208445 -0.1519437 -3.71599191 -0.20086443 0 0 Z " fill="#040514" transform="translate(517,484)"/>
<path d="M0 0 C1.47906462 14.09108857 1.68802074 27.52897399 -6 40 C-7.28902265 36.13293205 -6.1749846 33.62895936 -5.0625 29.875 C-2.65390681 21.18469893 -2.60104153 12.95440116 -3 4 C-4.65 4.33 -6.3 4.66 -8 5 C-8.33 4.34 -8.66 3.68 -9 3 C-3.375 0 -3.375 0 0 0 Z " fill="#040F34" transform="translate(341,477)"/>
<path d="M0 0 C0 0.33 0 0.66 0 1 C-0.79664063 0.97679687 -1.59328125 0.95359375 -2.4140625 0.9296875 C-10.50066321 0.54023784 -10.50066321 0.54023784 -18 3 C-18.66 4.98 -19.32 6.96 -20 9 C-24.62 9 -29.24 9 -34 9 C-34 6.69 -34 4.38 -34 2 C-33.01 1.67 -32.02 1.34 -31 1 C-31.33 2.98 -31.66 4.96 -32 7 C-25.12180654 6.30095056 -25.12180654 6.30095056 -19.6875 2.5 C-19.130625 1.675 -18.57375 0.85 -18 0 C-12.37926122 -3.27876429 -5.70542899 -2.8527145 0 0 Z " fill="#040618" transform="translate(582,485)"/>
<path d="M0 0 C1.39456452 0.00667256 2.78911118 0.01863093 4.18359375 0.03515625 C4.89451172 0.03966797 5.60542969 0.04417969 6.33789062 0.04882812 C8.09899388 0.06064761 9.86005411 0.07858362 11.62109375 0.09765625 C11.95109375 1.74765625 12.28109375 3.39765625 12.62109375 5.09765625 C13.28109375 4.76765625 13.94109375 4.43765625 14.62109375 4.09765625 C13.37132619 7.75082296 12.95010622 8.87831461 9.62109375 11.09765625 C9.64171875 9.98390625 9.66234375 8.87015625 9.68359375 7.72265625 C9.88490093 4.26549704 9.88490093 4.26549704 8.62109375 2.09765625 C4.99109375 1.76765625 1.36109375 1.43765625 -2.37890625 1.09765625 C-2.37890625 20.23765625 -2.37890625 39.37765625 -2.37890625 59.09765625 C-2.70890625 59.09765625 -3.03890625 59.09765625 -3.37890625 59.09765625 C-3.53251734 51.55277689 -3.68069905 44.0078077 -3.82186985 36.46268559 C-3.88758717 32.95952054 -3.95520365 29.45641326 -4.02709961 25.95336914 C-4.10959375 21.92994414 -4.18393669 17.90640504 -4.2578125 13.8828125 C-4.28484756 12.61929459 -4.31188263 11.35577667 -4.33973694 10.05397034 C-4.35983322 8.89284225 -4.3799295 7.73171417 -4.40063477 6.53540039 C-4.42062027 5.50725723 -4.44060577 4.47911407 -4.4611969 3.41981506 C-4.32952812 -0.29574449 -3.83290058 0.11077747 0 0 Z " fill="#121834" transform="translate(609.37890625,473.90234375)"/>
<path d="M0 0 C1.64574566 -0.02688151 3.29161413 -0.04634123 4.9375 -0.0625 C5.85402344 -0.07410156 6.77054688 -0.08570313 7.71484375 -0.09765625 C10 0 10 0 11 1 C11.16029688 3.95529504 11.25957328 6.88982457 11.31640625 9.84765625 C11.33718735 10.7340831 11.35796844 11.62050995 11.37937927 12.53379822 C11.444974 15.376617 11.50380552 18.21953117 11.5625 21.0625 C11.6056758 22.98503606 11.64928978 24.90756234 11.69335938 26.83007812 C11.80066543 31.55328668 11.90190451 36.27659153 12 41 C8.97697981 37.94559898 8.65874527 35.43052156 8.66011047 31.21051025 C8.67559433 30.46557312 8.69107819 29.72063599 8.70703125 28.953125 C8.71127609 28.18192322 8.71552094 27.41072144 8.71989441 26.6161499 C8.73664617 24.16040685 8.77429061 21.70549371 8.8125 19.25 C8.82755143 17.58204313 8.84123903 15.91407335 8.85351562 14.24609375 C8.88653806 10.16374422 8.93829516 6.08201268 9 2 C6.36 2.33 3.72 2.66 1 3 C0.67 2.01 0.34 1.02 0 0 Z " fill="#030405" transform="translate(644,484)"/>
<path d="M0 0 C1.051875 0.433125 1.051875 0.433125 2.125 0.875 C3.07375 1.24625 4.0225 1.6175 5 2 C5.845625 2.37125 6.69125 2.7425 7.5625 3.125 C15.22883259 5.07643011 22.71396529 4.63486588 30.0625 1.75390625 C32.02080111 0.99190602 33.95414664 0.47036361 36 0 C35.38671875 1.859375 35.38671875 1.859375 34 4 C24.78412743 8.17614366 16.57044641 9.22028067 7.08984375 5.80078125 C2.325 3.975 2.325 3.975 0 3 C0 2.01 0 1.02 0 0 Z " fill="#01020F" transform="translate(825,528)"/>
<path d="M0 0 C2.38443668 2.38443668 2.26183505 2.92459782 2.31884766 6.17431641 C2.33871735 7.03505768 2.35858704 7.89579895 2.37905884 8.78262329 C2.39061005 9.71287323 2.40216125 10.64312317 2.4140625 11.6015625 C2.43342865 12.55316254 2.4527948 13.50476257 2.4727478 14.48519897 C2.53264132 17.53170747 2.57896795 20.57825354 2.625 23.625 C2.66317079 25.6875167 2.70222198 27.7500173 2.7421875 29.8125 C2.83835086 34.87486966 2.92234563 39.93731395 3 45 C2.01 44.67 1.02 44.34 0 44 C-0.16778266 38.37680796 -0.32832479 32.75347325 -0.48217773 27.12988281 C-0.53552775 25.2170659 -0.59085153 23.30430297 -0.64819336 21.39160156 C-0.73029975 18.64139444 -0.80529246 15.89107093 -0.87890625 13.140625 C-0.90594131 12.28631897 -0.93297638 11.43201294 -0.96083069 10.55181885 C-0.98092697 9.75129089 -1.00102325 8.95076294 -1.02172852 8.12597656 C-1.04171402 7.42426331 -1.06169952 6.72255005 -1.08229065 5.99957275 C-0.99503812 3.87943182 -0.58261316 2.03550014 0 0 Z " fill="#030304" transform="translate(526,489)"/>
<path d="M0 0 C5.33696495 1.34981604 9.93528082 3.28199563 14.8125 5.8125 C15.51028564 6.16779785 16.20807129 6.5230957 16.92700195 6.88916016 C18.9537783 7.92140806 20.97692523 8.96052245 23 10 C24.8942288 10.96150095 26.78976675 11.92043448 28.6875 12.875 C29.77611328 13.42800781 29.77611328 13.42800781 30.88671875 13.9921875 C33.21973576 15.10479081 35.59148692 16.06359036 38 17 C38 17.99 38 18.98 38 20 C34.55670726 18.66083466 31.22470443 17.1892336 27.90234375 15.57421875 C26.94078369 15.10927002 25.97922363 14.64432129 24.98852539 14.1652832 C23.47826782 13.43378052 23.47826782 13.43378052 21.9375 12.6875 C14.04532161 8.88476422 6.16772262 5.17926407 -2 2 C-1.34 1.34 -0.68 0.68 0 0 Z " fill="#010525" transform="translate(264,367)"/>
<path d="M0 0 C0.66 0 1.32 0 2 0 C4.5287309 9.48274089 3.27758439 19.82526512 -1.3125 28.47265625 C-2.48645816 30.36366272 -3.6939435 32.19836475 -5 34 C-5.66 33.67 -6.32 33.34 -7 33 C-6.01033004 31.01622211 -5.02122023 29.03915733 -3.96484375 27.08984375 C0.12964501 18.51165627 -0.19142756 9.32252211 0 0 Z " fill="#030310" transform="translate(807,494)"/>
<path d="M0 0 C1.53125 1.16796875 1.53125 1.16796875 2.53125 4.16796875 C-2.46875 2.16796875 -2.46875 2.16796875 -4.78125 1.04296875 C-8.40431552 -0.13663398 -11.69257709 -0.35947241 -15.46875 0.16796875 C-18.28655534 1.55682123 -18.28655534 1.55682123 -20.46875 3.16796875 C-21.12875 3.16796875 -21.78875 3.16796875 -22.46875 3.16796875 C-22.51773438 3.79445313 -22.56671875 4.4209375 -22.6171875 5.06640625 C-22.69195313 5.88367188 -22.76671875 6.7009375 -22.84375 7.54296875 C-22.91335938 8.35507812 -22.98296875 9.1671875 -23.0546875 10.00390625 C-23.46875 12.16796875 -23.46875 12.16796875 -25.46875 14.16796875 C-27.22116784 10.66313307 -26.43293657 6.87282262 -25.46875 3.16796875 C-18.38943758 -4.50128637 -8.78532757 -4.54954464 0 0 Z " fill="#010212" transform="translate(726.46875,468.83203125)"/>
<path d="M0 0 C0.66 0 1.32 0 2 0 C3.03115279 3.26913624 2.9638984 5.86041348 2.5625 9.25 C2.46066406 10.14203125 2.35882812 11.0340625 2.25390625 11.953125 C2.17011719 12.62859375 2.08632813 13.3040625 2 14 C-5.46887895 16.12905975 -12.15596715 15.57079975 -19 12 C-18.67 11.34 -18.34 10.68 -18 10 C-17.48953125 10.15339844 -16.9790625 10.30679688 -16.453125 10.46484375 C-13.2250662 11.16905403 -10.04581999 11.34888204 -6.75 11.5625 C-5.48671875 11.64628906 -4.2234375 11.73007812 -2.921875 11.81640625 C-1.95765625 11.87699219 -0.9934375 11.93757812 0 12 C0 9.03 0 6.06 0 3 C-1.98 3 -3.96 3 -6 3 C-6 2.67 -6 2.34 -6 2 C-4.02 1.67 -2.04 1.34 0 1 C0 0.67 0 0.34 0 0 Z " fill="#020314" transform="translate(906,520)"/>
<path d="M0 0 C-8.20689655 7 -8.20689655 7 -13 7 C-13 7.66 -13 8.32 -13 9 C-13.96099609 9.36351562 -13.96099609 9.36351562 -14.94140625 9.734375 C-19.13566608 11.35957255 -23.14745672 12.97491031 -27 15.3125 C-27.99 15.869375 -28.98 16.42625 -30 17 C-30.66 16.67 -31.32 16.34 -32 16 C-29.91488715 12.87233072 -29.19781982 12.38002666 -25.9296875 10.9140625 C-25.115 10.54023438 -24.3003125 10.16640625 -23.4609375 9.78125 C-22.60757812 9.3996875 -21.75421875 9.018125 -20.875 8.625 C-15.16638837 6.05435191 -9.83305093 3.43719879 -4.69580078 -0.16650391 C-3 -1 -3 -1 0 0 Z " fill="#020A2A" transform="translate(315,491)"/>
<path d="M0 0 C1.485 0.99 1.485 0.99 3 2 C-1.51557996 4.30711155 -6.03624517 6.60380459 -10.56201172 8.89086914 C-12.10187873 9.67087988 -13.64029956 10.4537523 -15.17724609 11.23950195 C-17.38267924 12.36639155 -19.5930551 13.48299314 -21.8046875 14.59765625 C-22.49432587 14.952798 -23.18396423 15.30793976 -23.89450073 15.67384338 C-25.56705535 16.51051516 -27.28086264 17.26377631 -29 18 C-29.66 17.67 -30.32 17.34 -31 17 C-31 16.34 -31 15.68 -31 15 C-29.845 14.505 -28.69 14.01 -27.5 13.5 C-20.8367695 10.54444943 -14.35513432 7.21789249 -7.85009766 3.93310547 C-5.23687288 2.61511324 -2.61860339 1.30726546 0 0 Z " fill="#01082D" transform="translate(240,370)"/>
<path d="M0 0 C5.62071575 0.93066317 9.89009605 1.76921652 14 6 C18.00894496 11.72706422 18.11326479 16.20411247 18 23 C17.01 23.33 16.02 23.66 15 24 C14.96132813 22.80503906 14.96132813 22.80503906 14.921875 21.5859375 C14.57262904 13.00188843 14.57262904 13.00188843 10 6 C7.35003527 4.67755106 4.85817666 3.857453 2 3 C2 2.34 2 1.68 2 1 C1.34 0.67 0.68 0.34 0 0 Z " fill="#000115" transform="translate(841,483)"/>
<path d="M0 0 C0.95003906 0.15339844 1.90007813 0.30679688 2.87890625 0.46484375 C7.54961567 1.13208795 12.22798139 1.34403564 16.9375 1.5625 C17.81212891 1.60568359 18.68675781 1.64886719 19.58789062 1.69335938 C21.72511995 1.79846901 23.86254238 1.89963985 26 2 C26.33 2.66 26.66 3.32 27 4 C17.64313297 6.14861391 8.8579681 5.60324126 0 2 C0 1.34 0 0.68 0 0 Z " fill="#020216" transform="translate(700,531)"/>
<path d="M0 0 C6.93 0.495 6.93 0.495 14 1 C13.67 1.66 13.34 2.32 13 3 C9.37 2.67 5.74 2.34 2 2 C4.08728387 11.9912535 4.08728387 11.9912535 10.8125 19.1796875 C12.51159526 20.17311013 14.25322978 21.09302315 16 22 C16 22.33 16 22.66 16 23 C12.28925696 23.54569751 11.08249126 23.05723884 7.9375 20.875 C4.12489637 17.4063168 0.61838242 13.25625058 0 8 C-0.06707633 5.32726623 -0.04458049 2.67482929 0 0 Z " fill="#020312" transform="translate(391,509)"/>
<path d="M0 0 C3.3 0 6.6 0 10 0 C10.02686553 1.97909398 10.04633375 3.95828971 10.0625 5.9375 C10.07410156 7.03964844 10.08570313 8.14179687 10.09765625 9.27734375 C10 12 10 12 9 13 C6.98035801 13.07244053 4.95832876 13.08377188 2.9375 13.0625 C1.28041016 13.04896484 1.28041016 13.04896484 -0.41015625 13.03515625 C-1.26480469 13.02355469 -2.11945312 13.01195312 -3 13 C-3.33 12.01 -3.66 11.02 -4 10 C-0.04 10 3.92 10 8 10 C8 7.03 8 4.06 8 1 C5.36 1 2.72 1 0 1 C0 0.67 0 0.34 0 0 Z " fill="#000110" transform="translate(670,522)"/>
<path d="M0 0 C0 0.66 0 1.32 0 2 C-1.24891614 2.48198463 -2.49918808 2.96045677 -3.75 3.4375 C-4.79414063 3.83775391 -4.79414063 3.83775391 -5.859375 4.24609375 C-10.20072361 5.77507237 -13.99837927 6.18733697 -18.625 6.25 C-19.77226562 6.27578125 -20.91953125 6.3015625 -22.1015625 6.328125 C-23.05804688 6.21984375 -24.01453125 6.1115625 -25 6 C-25.66 5.01 -26.32 4.02 -27 3 C-25.85402344 2.95101562 -24.70804687 2.90203125 -23.52734375 2.8515625 C-21.99737465 2.77647199 -20.46742782 2.70092694 -18.9375 2.625 C-18.18533203 2.5940625 -17.43316406 2.563125 -16.65820312 2.53125 C-10.97716383 2.23613108 -5.54930813 0 0 0 Z " fill="#01010D" transform="translate(440,530)"/>
<path d="M0 0 C0.33 0 0.66 0 1 0 C1 4.62 1 9.24 1 14 C4.63 14.33 8.26 14.66 12 15 C12 15.66 12 16.32 12 17 C9.85423363 17.02685938 7.70837355 17.04633088 5.5625 17.0625 C4.36753906 17.07410156 3.17257812 17.08570313 1.94140625 17.09765625 C-1 17 -1 17 -2 16 C-2.12601135 14.2534241 -2.17579494 12.5010766 -2.1875 10.75 C-2.20167969 9.79609375 -2.21585938 8.8421875 -2.23046875 7.859375 C-1.9897641 4.87300541 -1.249438 2.70629259 0 0 Z " fill="#06061A" transform="translate(896,459)"/>
<path d="M0 0 C0.495 0.7425 0.99 1.485 1.5 2.25 C6.7240827 7.99649097 12.51183862 9.41945919 20.09375 9.921875 C20.7228125 9.94765625 21.351875 9.9734375 22 10 C21.67 10.99 21.34 11.98 21 13 C14.07867378 13.60185445 7.95237908 11.74158462 2.21484375 7.76171875 C0.8125 6.5 0.8125 6.5 -1 4 C-0.8125 1.6875 -0.8125 1.6875 0 0 Z " fill="#020210" transform="translate(549,523)"/>
<path d="M0 0 C0 3.59760476 -0.89512296 4.2215623 -3 7 C-4.30850481 10.69308265 -4.09842865 14.36970547 -4.0625 18.25 C-4.05347656 19.51328125 -4.04445313 20.7765625 -4.03515625 22.078125 C-4.02355469 23.04234375 -4.01195312 24.0065625 -4 25 C-7 23 -7 23 -7.6171875 21.1875 C-8.43311736 14.26445879 -7.12100715 8.2420143 -4 2 C-1.9375 0.875 -1.9375 0.875 0 0 Z " fill="#030316" transform="translate(694,462)"/>
<path d="M0 0 C0 0.66 0 1.32 0 2 C-3.59114771 3.79557385 -7.78483523 3.80881628 -11.73828125 4.3046875 C-15.07781935 5.01658904 -17.1614106 6.16119696 -20 8 C-20.66 8 -21.32 8 -22 8 C-22 9.98 -22 11.96 -22 14 C-22.33 14 -22.66 14 -23 14 C-23.48342541 7.71546961 -23.48342541 7.71546961 -21.4375 4.6875 C-15.32572574 0.45627166 -7.24587342 0 0 0 Z " fill="#01010F" transform="translate(583,505)"/>
<path d="M0 0 C0.66 0.99 1.32 1.98 2 3 C-5.2919708 10.2919708 -5.2919708 10.2919708 -11.875 10.3125 C-13.10992187 10.32925781 -14.34484375 10.34601562 -15.6171875 10.36328125 C-19.13194532 9.98583035 -20.48255579 9.39726471 -23 7 C-22.67 6.01 -22.34 5.02 -22 4 C-21.46246094 4.4846875 -20.92492187 4.969375 -20.37109375 5.46875 C-16.02518991 8.27533041 -10.97869457 7.74816449 -6 7 C-3.02638914 4.78436838 -1.63040207 3.26080415 0 0 Z " fill="#000323" transform="translate(160,514)"/>
<path d="M0 0 C0.66 0.33 1.32 0.66 2 1 C1.97679687 2.03898437 1.95359375 3.07796875 1.9296875 4.1484375 C1.80895842 12.01091905 1.93841599 19.34268797 4 27 C0.25750626 24.58548791 0.25750626 24.58548791 -0.7421875 22.3125 C-1.12546138 18.87464943 -1.14377065 15.45379994 -1.125 12 C-1.12886719 11.2884375 -1.13273438 10.576875 -1.13671875 9.84375 C-1.13033978 6.42461983 -1.07200732 3.26706994 0 0 Z " fill="#06061A" transform="translate(814,492)"/>
<path d="M0 0 C0.42667969 0.38671875 0.85335937 0.7734375 1.29296875 1.171875 C8.49729575 7.17300512 16.91418048 9.29746239 26 11 C26 11.33 26 11.66 26 12 C16.2522992 12.46417623 9.24717984 10.08868544 1 5 C1 4.34 1 3.68 1 3 C0.34 3 -0.32 3 -1 3 C-0.67 2.01 -0.34 1.02 0 0 Z " fill="#02020E" transform="translate(691,489)"/>
<path d="M0 0 C3.76548842 0.10758538 5.02326329 1.0217124 7.8125 3.625 C11.55744511 9.18390289 10.3710936 16.59245043 10 23 C9.01 23.33 8.02 23.66 7 24 C7 18.06 7 12.12 7 6 C6.01 5.67 5.02 5.34 4 5 C2.61423077 3.37667033 1.27358732 1.71275535 0 0 Z " fill="#040615" transform="translate(442,495)"/>
<path d="M0 0 C1.485 0.99 1.485 0.99 3 2 C3 2.66 3 3.32 3 4 C6.21614733 5.71990613 9.47817444 6.91520792 12.9375 8.0625 C13.95714844 8.40410156 14.97679687 8.74570312 16.02734375 9.09765625 C18.67907004 9.90258236 21.27443082 10.51311195 24 11 C20.93275341 12.83067646 19.23303489 13.23308531 15.75 12.4375 C10.86492639 11.20413983 7.08133531 8.88094257 3 6 C2.01 5.34 1.02 4.68 0 4 C0 2.68 0 1.36 0 0 Z " fill="#020211" transform="translate(396,488)"/>
<path d="M0 0 C0.625 1.8125 0.625 1.8125 1 4 C0.01 5.485 0.01 5.485 -1 7 C-1.45138911 8.92447891 -1.45138911 8.92447891 -1.6328125 11.01171875 C-1.71660156 11.76904297 -1.80039062 12.52636719 -1.88671875 13.30664062 C-1.96535156 14.09232422 -2.04398438 14.87800781 -2.125 15.6875 C-2.21136719 16.48478516 -2.29773438 17.28207031 -2.38671875 18.10351562 C-2.59848472 20.06823326 -2.80021473 22.03402796 -3 24 C-5.49166907 20.2624964 -5.13738817 18.60880428 -4.8125 14.1875 C-4.73644531 12.98480469 -4.66039062 11.78210938 -4.58203125 10.54296875 C-3.94282789 6.65197916 -2.87113961 2.87113961 0 0 Z " fill="#010215" transform="translate(770,488)"/>
<path d="M0 0 C0.66 0.33 1.32 0.66 2 1 C1.67 2.32 1.34 3.64 1 5 C-3.62 5 -8.24 5 -13 5 C-13 4.01 -13 3.02 -13 2 C-9.04 2 -5.08 2 -1 2 C-0.67 1.34 -0.34 0.68 0 0 Z " fill="#000012" transform="translate(742,475)"/>
<path d="M0 0 C0.66 0.33 1.32 0.66 2 1 C2 1.33 2 1.66 2 2 C1.20335937 1.97679687 0.40671875 1.95359375 -0.4140625 1.9296875 C-8.4243578 1.68541697 -8.4243578 1.68541697 -16 4 C-16.33 4.66 -16.66 5.32 -17 6 C-17.66 6 -18.32 6 -19 6 C-17.97386916 3.02422056 -17.03368909 2.02245939 -14.375 0.25 C-9.33898158 -1.61519201 -5.18869037 -1.72956346 0 0 Z " fill="#00010D" transform="translate(580,484)"/>
<path d="M0 0 C3.38426332 1.36810645 4.59050326 2.30563597 6.4375 5.4375 C7 8 7 8 6.125 10.3125 C5.568125 11.1478125 5.568125 11.1478125 5 12 C4.7525 10.88625 4.505 9.7725 4.25 8.625 C3.36079034 5.08159406 3.36079034 5.08159406 1.375 3.5625 C-0.93457731 3.01549485 -2.76494415 2.96152083 -5.125 3 C-6.40375 3 -7.6825 3 -9 3 C-9.66 2.34 -10.32 1.68 -11 1 C-7.547912 -0.726044 -3.78158433 -0.35983934 0 0 Z " fill="#02030F" transform="translate(487,484)"/>
<path d="M0 0 C6.6 0.66 13.2 1.32 20 2 C19.01 3.485 19.01 3.485 18 5 C12.23940755 5.4966028 7.53111654 4.58031901 2 3 C2 2.34 2 1.68 2 1 C1.34 0.67 0.68 0.34 0 0 Z " fill="#020D31" transform="translate(243,513)"/>
<path d="M0 0 C0.804375 0.495 1.60875 0.99 2.4375 1.5 C2.4375 2.49 2.4375 3.48 2.4375 4.5 C1.59960938 4.00886719 0.76171875 3.51773437 -0.1015625 3.01171875 C-4.02500831 1.29797888 -6.68313208 1.19209336 -10.9375 1.3125 C-12.18273437 1.33957031 -13.42796875 1.36664063 -14.7109375 1.39453125 C-15.65195312 1.42933594 -16.59296875 1.46414063 -17.5625 1.5 C-12.91685762 -3.14564238 -5.64027942 -2.37485449 0 0 Z " fill="#000012" transform="translate(429.5625,467.5)"/>
<path d="M0 0 C0.33 0 0.66 0 1 0 C1.54008134 3.67255314 1.05063096 4.92482069 -1.0625 8.0625 C-3.94445539 11.26743315 -7.18237439 13.05375949 -11 15 C-11.99 14.34 -12.98 13.68 -14 13 C-13.22076172 12.67128906 -13.22076172 12.67128906 -12.42578125 12.3359375 C-7.23385503 9.97509859 -4.28405391 7.67728891 -1 3 C-0.67 2.01 -0.34 1.02 0 0 Z " fill="#01010B" transform="translate(743,518)"/>
<path d="M0 0 C0.66 0.33 1.32 0.66 2 1 C1.00481422 7.50799121 -0.39138172 12.4667853 -4 18 C-5.33384217 13.99847349 -4.31990305 11.88822612 -3.125 7.875 C-2.75632812 6.61429687 -2.38765625 5.35359375 -2.0078125 4.0546875 C-1 1 -1 1 0 0 Z " fill="#000523" transform="translate(339,499)"/>
<path d="M0 0 C-0.99 0.495 -0.99 0.495 -2 1 C-2 1.66 -2 2.32 -2 3 C-3.32 3 -4.64 3 -6 3 C-6 3.66 -6 4.32 -6 5 C-8.64 5.66 -11.28 6.32 -14 7 C-14.33 6.34 -14.66 5.68 -15 5 C-13.06891037 3.96709159 -11.129882 2.94901328 -9.1875 1.9375 C-8.10855469 1.36902344 -7.02960938 0.80054688 -5.91796875 0.21484375 C-3 -1 -3 -1 0 0 Z " fill="#050F34" transform="translate(331,483)"/>
<path d="M0 0 C0.33 0 0.66 0 1 0 C1.33 1.98 1.66 3.96 2 6 C-2.62 6 -7.24 6 -12 6 C-12.33 5.01 -12.66 4.02 -13 3 C-8.71 3.33 -4.42 3.66 0 4 C0 2.68 0 1.36 0 0 Z " fill="#00000A" transform="translate(448,474)"/>
<path d="M0 0 C2 3 2 3 2 5 C2.66 5.2475 3.32 5.495 4 5.75 C7.76360907 7.31817045 11.3711424 9.14505046 15 11 C15 11.33 15 11.66 15 12 C10.75154102 12.35403825 8.69499781 11.51908401 5.25 9.0625 C4.47140625 8.51722656 3.6928125 7.97195313 2.890625 7.41015625 C1 6 1 6 0 5 C-0.04063832 3.33382885 -0.042721 1.66611905 0 0 Z " fill="#010322" transform="translate(126,432)"/>
<path d="M0 0 C0 4.95 0 9.9 0 15 C-0.99 15.495 -0.99 15.495 -2 16 C-3.09506492 12.71480525 -3.09960608 10.26336585 -3.0625 6.8125 C-3.05347656 5.72582031 -3.04445313 4.63914062 -3.03515625 3.51953125 C-3.02355469 2.68808594 -3.01195312 1.85664063 -3 1 C-1 0 -1 0 0 0 Z " fill="#000015" transform="translate(395,471)"/>
<path d="M0 0 C0.9075 0.61875 1.815 1.2375 2.75 1.875 C7.77762462 4.79827865 13.3113626 5.29008794 19 6 C19 6.33 19 6.66 19 7 C12.56111749 7.30661345 6.83717014 6.99879988 1 4 C0.34 3.01 -0.32 2.02 -1 1 C-0.67 0.67 -0.34 0.34 0 0 Z " fill="#01020C" transform="translate(769,527)"/>
<path d="M0 0 C1.69141656 0.08963062 3.37959602 0.24577676 5.0625 0.4375 C6.44115234 0.59025391 6.44115234 0.59025391 7.84765625 0.74609375 C8.55792969 0.82988281 9.26820313 0.91367187 10 1 C10 1.33 10 1.66 10 2 C7.03 2 4.06 2 1 2 C1 4.97 1 7.94 1 11 C0.34 11 -0.32 11 -1 11 C-1.02688151 9.35425434 -1.04634123 7.70838587 -1.0625 6.0625 C-1.07410156 5.14597656 -1.08570313 4.22945313 -1.09765625 3.28515625 C-1 1 -1 1 0 0 Z " fill="#121635" transform="translate(644,473)"/>
<path d="M0 0 C2.2578125 1.515625 2.2578125 1.515625 4 3 C2.04196493 3.05389087 0.08351091 3.09274217 -1.875 3.125 C-2.96554687 3.14820313 -4.05609375 3.17140625 -5.1796875 3.1953125 C-8 3 -8 3 -10 1 C-6.86967764 -0.56516118 -3.40926916 -0.540337 0 0 Z " fill="#00000B" transform="translate(785,483)"/>
<path d="M0 0 C1.98 0.99 1.98 0.99 4 2 C4 2.66 4 3.32 4 4 C4.99 4.33 5.98 4.66 7 5 C7.33 7.64 7.66 10.28 8 13 C7.67 11.68 7.34 10.36 7 9 C6.34 9 5.68 9 5 9 C4.34 7.35 3.68 5.7 3 4 C2.34 4 1.68 4 1 4 C0.67 2.68 0.34 1.36 0 0 Z " fill="#08091E" transform="translate(532,476)"/>
<path d="M0 0 C0.99 0.33 1.98 0.66 3 1 C3 2.98 3 4.96 3 7 C2.67 7 2.34 7 2 7 C1.67 10.3 1.34 13.6 1 17 C0.67 17 0.34 17 0 17 C0 11.39 0 5.78 0 0 Z " fill="#010414" transform="translate(869,493)"/>
<path d="M0 0 C0.99 0.33 1.98 0.66 3 1 C2.34 1 1.68 1 1 1 C1 1.66 1 2.32 1 3 C-0.65071396 4.02611949 -2.31970006 5.02308143 -4 6 C-5.75149165 7.58245275 -5.75149165 7.58245275 -7 9 C-7 6 -7 6 -4.625 3.375 C-2 1 -2 1 0 0 Z " fill="#020217" transform="translate(837,484)"/>
<path d="M0 0 C0.66 0.33 1.32 0.66 2 1 C1.04367001 2.29315061 0.08486149 3.58446853 -0.875 4.875 C-1.40867187 5.59429687 -1.94234375 6.31359375 -2.4921875 7.0546875 C-4 9 -4 9 -6 11 C-5.63076923 4.6 -5.63076923 4.6 -2.4375 1.5625 C-1.633125 1.046875 -0.82875 0.53125 0 0 Z " fill="#030417" transform="translate(822,481)"/>
<path d="M0 0 C2.475 0.495 2.475 0.495 5 1 C5 1.99 5 2.98 5 4 C5.66 4 6.32 4 7 4 C7.625 5.875 7.625 5.875 8 8 C7.34 8.66 6.68 9.32 6 10 C5.566875 9.0925 5.13375 8.185 4.6875 7.25 C3.29482729 4.56781551 1.88887243 2.33860395 0 0 Z " fill="#030416" transform="translate(799,480)"/>
<path d="M0 0 C0.33 0 0.66 0 1 0 C1.33 1.65 1.66 3.3 2 5 C2.66 4.67 3.32 4.34 4 4 C2.75023244 7.65316671 2.32901247 8.78065836 -1 11 C-0.979375 9.88625 -0.95875 8.7725 -0.9375 7.625 C-0.73619282 4.16784079 -0.73619282 4.16784079 -2 2 C-1.34 2 -0.68 2 0 2 C0 1.34 0 0.68 0 0 Z " fill="#101632" transform="translate(620,474)"/>
<path d="M0 0 C0.66 0.66 1.32 1.32 2 2 C0.7260411 4.03833424 -0.61061923 6.03852126 -2 8 C-2.66 8 -3.32 8 -4 8 C-4 8.66 -4 9.32 -4 10 C-4.99 9.67 -5.98 9.34 -7 9 C-6.57847656 8.51789062 -6.15695312 8.03578125 -5.72265625 7.5390625 C-5.17480469 6.90742187 -4.62695312 6.27578125 -4.0625 5.625 C-3.51722656 4.99851562 -2.97195313 4.37203125 -2.41015625 3.7265625 C-0.93041376 2.04367666 -0.93041376 2.04367666 0 0 Z " fill="#02020A" transform="translate(448,520)"/>
<path d="M0 0 C1.953125 0.7421875 1.953125 0.7421875 4 2 C4.83886169 4.67790463 4.81766414 7.1737941 5 10 C4.01 9.67 3.02 9.34 2 9 C1.26953125 6.93359375 1.26953125 6.93359375 0.8125 4.4375 C0.65394531 3.61121094 0.49539063 2.78492188 0.33203125 1.93359375 C0.16767578 0.97646484 0.16767578 0.97646484 0 0 Z " fill="#060A1A" transform="translate(739,466)"/>
<path d="M0 0 C0.66 0.33 1.32 0.66 2 1 C1.67 6.28 1.34 11.56 1 17 C0.67 17 0.34 17 0 17 C-0.19561869 14.9174133 -0.38119313 12.83388144 -0.5625 10.75 C-0.66691406 9.58984375 -0.77132812 8.4296875 -0.87890625 7.234375 C-0.98198087 4.48128523 -0.86213473 2.580018 0 0 Z " fill="#000108" transform="translate(814,492)"/>
<path d="M0 0 C0.99 1.485 0.99 1.485 2 3 C4.64691668 3.80092254 4.64691668 3.80092254 7.625 4.1875 C9.12933594 4.42533203 9.12933594 4.42533203 10.6640625 4.66796875 C11.43492187 4.77753906 12.20578125 4.88710938 13 5 C13 5.33 13 5.66 13 6 C11.02090602 6.02686553 9.04171029 6.04633375 7.0625 6.0625 C5.96035156 6.07410156 4.85820313 6.08570313 3.72265625 6.09765625 C1 6 1 6 0 5 C-0.04063832 3.33382885 -0.042721 1.66611905 0 0 Z " fill="#0A0B20" transform="translate(667,516)"/>
<path d="M0 0 C-2.52956528 3.0916909 -5.22454612 3.90931332 -9 5 C-9.66 4.34 -10.32 3.68 -11 3 C-9.73581754 2.30034557 -8.46334598 1.61565237 -7.1875 0.9375 C-6.47980469 0.55464844 -5.77210938 0.17179688 -5.04296875 -0.22265625 C-3 -1 -3 -1 0 0 Z " fill="#010108" transform="translate(800,529)"/>
<path d="M0 0 C1.28317892 3.84953676 1.06643637 6.94738135 1 11 C0.01 10.67 -0.98 10.34 -2 10 C-2.1953125 3.9453125 -2.1953125 3.9453125 -2 2 C-1.34 1.34 -0.68 0.68 0 0 Z " fill="#020323" transform="translate(135,505)"/>
<path d="M0 0 C4.03384128 2.07143201 5.92856799 3.96615872 8 8 C7.34 8.66 6.68 9.32 6 10 C5.0234375 8.20963542 4.046875 6.41927083 3.0703125 4.62890625 C2.08589976 2.83381685 2.08589976 2.83381685 0 2 C0 1.34 0 0.68 0 0 Z " fill="#050717" transform="translate(737,494)"/>
<path d="M0 0 C0.99 0.33 1.98 0.66 3 1 C1.02 3.31 -0.96 5.62 -3 8 C-3 6 -3 4 -3 2 C-2.01 1.34 -1.02 0.68 0 0 Z " fill="#030415" transform="translate(772,475)"/>
<path d="M0 0 C2.64465038 3.1254959 3.84414715 6.08788267 5 10 C4.01 10 3.02 10 2 10 C1.46987262 8.71211992 0.9511671 7.41953322 0.4375 6.125 C0.14746094 5.40570312 -0.14257812 4.68640625 -0.44140625 3.9453125 C-1 2 -1 2 0 0 Z " fill="#01041D" transform="translate(179,518)"/>
<path d="M0 0 C3.3 0 6.6 0 10 0 C9.67 0.66 9.34 1.32 9 2 C6.35139573 2.59355614 3.70802678 2.74209269 1 3 C0.67 2.01 0.34 1.02 0 0 Z " fill="#000009" transform="translate(644,484)"/>
<path d="M0 0 C5.41538462 -0.36923077 5.41538462 -0.36923077 8.375 1.5 C8.91125 1.995 9.4475 2.49 10 3 C2.25 3.125 2.25 3.125 0 2 C0 1.34 0 0.68 0 0 Z " fill="#040419" transform="translate(408,532)"/>
<path d="M0 0 C0.33 0.99 0.66 1.98 1 3 C-0.65 4.32 -2.3 5.64 -4 7 C-4.99 6.34 -5.98 5.68 -7 5 C-6.030625 4.360625 -5.06125 3.72125 -4.0625 3.0625 C-1.23963731 1.3034741 -1.23963731 1.3034741 0 0 Z " fill="#030418" transform="translate(582,526)"/>
<path d="M0 0 C0.66 0.66 1.32 1.32 2 2 C1.01 4.64 0.02 7.28 -1 10 C-1.33 10 -1.66 10 -2 10 C-2.25 3.375 -2.25 3.375 0 0 Z " fill="#00000F" transform="translate(408,471)"/>
<path d="M0 0 C-1.2065625 0.4021875 -1.2065625 0.4021875 -2.4375 0.8125 C-3.283125 1.204375 -4.12875 1.59625 -5 2 C-5.33 2.99 -5.66 3.98 -6 5 C-8.0625 5.6875 -8.0625 5.6875 -10 6 C-8.20404732 1.26521567 -5.07984355 -1.69328118 0 0 Z " fill="#080A2A" transform="translate(702,458)"/>
<path d="M0 0 C0.33 0 0.66 0 1 0 C1.99 3.63 2.98 7.26 4 11 C3.34 10.67 2.68 10.34 2 10 C2 9.34 2 8.68 2 8 C1.01 7.67 0.02 7.34 -1 7 C-0.67 4.69 -0.34 2.38 0 0 Z " fill="#00000B" transform="translate(687,513)"/>
<path d="M0 0 C0.4125 0.45375 0.825 0.9075 1.25 1.375 C3.06408095 3.05950374 4.75285627 3.99265971 7 5 C5.35 5.33 3.7 5.66 2 6 C1.01 4.35 0.02 2.7 -1 1 C-0.67 0.67 -0.34 0.34 0 0 Z " fill="#050617" transform="translate(407,480)"/>
<path d="M0 0 C3.375 0.25 3.375 0.25 7 1 C8.4375 3.0625 8.4375 3.0625 9 5 C5.9168649 3.80100302 2.93720508 2.52299523 0 1 C0 0.67 0 0.34 0 0 Z " fill="#010722" transform="translate(303,387)"/>
<path d="M0 0 C0.99 0.495 0.99 0.495 2 1 C2 1.99 2 2.98 2 4 C2.66 4 3.32 4 4 4 C4.33 5.32 4.66 6.64 5 8 C4.01 8.495 4.01 8.495 3 9 C0 3.375 0 3.375 0 0 Z " fill="#020418" transform="translate(653,521)"/>
<path d="M0 0 C0.33 0 0.66 0 1 0 C1 3.63 1 7.26 1 11 C0.01 10.34 -0.98 9.68 -2 9 C-1.34 6.03 -0.68 3.06 0 0 Z " fill="#000013" transform="translate(548,511)"/>
<path d="M0 0 C1.31571603 0.2547514 2.62760376 0.52934141 3.9375 0.8125 C4.66839844 0.96332031 5.39929688 1.11414063 6.15234375 1.26953125 C6.76207031 1.51058594 7.37179688 1.75164062 8 2 C8.33 2.99 8.66 3.98 9 5 C5.22454612 3.90931332 2.52956528 3.0916909 0 0 Z " fill="#010520" transform="translate(196,490)"/>
<path d="M0 0 C0 0.66 0 1.32 0 2 C-2.64 2.66 -5.28 3.32 -8 4 C-8.33 3.34 -8.66 2.68 -9 2 C-5.86501708 0.14223235 -3.62528568 -0.20140476 0 0 Z " fill="#020826" transform="translate(325,486)"/>
</svg>
